<?xml version="1.0" encoding="UTF-8" standalone="no"?>
<!-- Created with Inkscape (http://www.inkscape.org/) -->

<svg
   xmlns:dc="http://purl.org/dc/elements/1.1/"
   xmlns:cc="http://creativecommons.org/ns#"
   xmlns:rdf="http://www.w3.org/1999/02/22-rdf-syntax-ns#"
   xmlns:svg="http://www.w3.org/2000/svg"
   xmlns="http://www.w3.org/2000/svg"
   xmlns:sodipodi="http://sodipodi.sourceforge.net/DTD/sodipodi-0.dtd"
   xmlns:inkscape="http://www.inkscape.org/namespaces/inkscape"
   width="287.24796mm"
   height="150.26358mm"
   viewBox="0 0 287.24796 150.26358"
   version="1.1"
   id="svg8"
   inkscape:version="0.92.4 5da689c313, 2019-01-14"
   sodipodi:docname="itzhak-boris.svg">
  <defs
     id="defs2">
    <clipPath
       id="clipPath4555"
       clipPathUnits="userSpaceOnUse">
      <path
         inkscape:connector-curvature="0"
         id="path4553"
         d="M 60,206 H 342 V 163 H 60 Z" />
    </clipPath>
    <clipPath
       id="clipPath4565"
       clipPathUnits="userSpaceOnUse">
      <path
         inkscape:connector-curvature="0"
         id="path4563"
         d="M 60,247 H 342 V 203 H 60 Z" />
    </clipPath>
    <clipPath
       id="clipPath4575"
       clipPathUnits="userSpaceOnUse">
      <path
         inkscape:connector-curvature="0"
         id="path4573"
         d="M 103,234 H 342 V 175 H 103 Z" />
    </clipPath>
    <clipPath
       id="clipPath4597"
       clipPathUnits="userSpaceOnUse">
      <path
         inkscape:connector-curvature="0"
         id="path4595"
         d="M 55,265 H 342 V 248 H 55 Z" />
    </clipPath>
  </defs>
  <sodipodi:namedview
     id="base"
     pagecolor="#ffffff"
     bordercolor="#666666"
     borderopacity="1.0"
     inkscape:pageopacity="0.0"
     inkscape:pageshadow="2"
     inkscape:zoom="0.49497475"
     inkscape:cx="635.1065"
     inkscape:cy="380.63634"
     inkscape:document-units="mm"
     inkscape:current-layer="layer1"
     showgrid="false"
     fit-margin-top="0"
     fit-margin-left="0"
     fit-margin-right="0"
     fit-margin-bottom="0"
     inkscape:window-width="1920"
     inkscape:window-height="1012"
     inkscape:window-x="0"
     inkscape:window-y="31"
     inkscape:window-maximized="1" />
  <metadata
     id="metadata5">
    <rdf:RDF>
      <cc:Work
         rdf:about="">
        <dc:format>image/svg+xml</dc:format>
        <dc:type
           rdf:resource="http://purl.org/dc/dcmitype/StillImage" />
        <dc:title></dc:title>
      </cc:Work>
    </rdf:RDF>
  </metadata>
  <g
     inkscape:label="Layer 1"
     inkscape:groupmode="layer"
     id="layer1"
     transform="translate(252.52482,-62.27056)">
    <g
       transform="matrix(0.35277777,0,0,-0.35277777,-252.76598,212.97934)"
       inkscape:label="Schematics"
       id="g4545">
      <g
         id="g4547" />
      <g
         id="g4549">
        <g
           clip-path="url(#clipPath4555)"
           id="g4551">
          <path
             inkscape:connector-curvature="0"
             id="path4557"
             style="fill:none;stroke:#ff0000;stroke-width:1.60000002;stroke-linecap:square;stroke-linejoin:miter;stroke-miterlimit:3.25;stroke-dasharray:none;stroke-opacity:1"
             d="m 60.855,204.621 h 0.008 v -0.004 h 0.004 v -0.004 l 0.004,-0.004 0.047,-0.058 0.07,-0.094 0.137,-0.184 0.313,-0.406 0.644,-0.82 1.207,-1.481 2.598,-2.921 0.051,-0.055 0.054,-0.055 0.106,-0.113 0.222,-0.234 0.465,-0.485 1.047,-1.051 2.598,-2.441 0.09,-0.082 0.093,-0.082 0.184,-0.164 0.383,-0.336 0.804,-0.692 1.762,-1.449 0.234,-0.187 0.239,-0.192 0.488,-0.379 1.023,-0.781 2.219,-1.605 0.16,-0.11 0.161,-0.113 0.324,-0.223 0.664,-0.449 1.383,-0.91 2.988,-1.844 0.195,-0.113 0.199,-0.117 0.399,-0.231 0.812,-0.464 1.688,-0.93 3.601,-1.836 0.219,-0.106 0.223,-0.105 0.441,-0.211 0.903,-0.422 1.851,-0.828 3.887,-1.617 0.254,-0.098 0.25,-0.101 0.508,-0.196 1.027,-0.386 2.102,-0.762 4.367,-1.445 0.304,-0.098 0.305,-0.094 0.613,-0.187 1.239,-0.368 2.523,-0.71 0.641,-0.172 0.644,-0.172 1.297,-0.336 2.637,-0.645 0.332,-0.078 0.336,-0.078 0.672,-0.152 1.351,-0.305 2.742,-0.578 5.622,-1.055 0.351,-0.062 0.352,-0.059 0.703,-0.121 1.418,-0.23 2.859,-0.442 0.359,-0.051 0.36,-0.054 0.723,-0.102 1.453,-0.203 2.929,-0.383 0.368,-0.047 0.371,-0.043 0.738,-0.09 1.484,-0.175 2.989,-0.328 6.054,-0.586 1.422,-0.125 1.43,-0.118 2.875,-0.222 0.719,-0.055 2.168,-0.152 2.906,-0.192 0.363,-0.019 0.363,-0.024 2.192,-0.129 2.933,-0.16 1.469,-0.078 1.477,-0.07 2.953,-0.137 0.402,-0.015 0.402,-0.02 0.801,-0.031 1.61,-0.067 3.23,-0.121 0.402,-0.011 0.407,-0.016 2.425,-0.082 3.247,-0.098 0.812,-0.023 0.816,-0.02 1.625,-0.043 3.262,-0.082 0.41,-0.008 0.407,-0.007 0.816,-0.02 1.633,-0.035 3.273,-0.063 0.766,-0.015 0.765,-0.012 1.532,-0.027 3.062,-0.047 0.383,-0.004 0.383,-0.008 0.769,-0.008 1.532,-0.023 3.07,-0.035 0.387,-0.004 0.382,-0.008 0.77,-0.008 1.535,-0.015 0.387,-0.004 0.383,-0.004 0.769,-0.008 1.539,-0.012 0.383,-0.004 0.387,-0.004 0.769,-0.007 4.618,-0.036 h 0.418 l 1.253,-0.011 1.668,-0.008 0.418,-0.004 h 0.418 l 0.836,-0.004 1.672,-0.012 h 0.414 l 0.418,-0.003 0.836,-0.004 1.672,-0.004 0.418,-0.004 h 0.418 l 2.508,-0.012 h 0.836 l 0.84,-0.004 h 0.417 l 0.418,-0.004 h 1.254 l 0.418,-0.004 h 0.836 l 1.672,-0.004 h 0.418 l 0.422,-0.003 h 1.672 l 0.836,-0.004 h 2.094 l 0.418,-0.004 h 4.535 l 0.41,-0.004 h 8.219 l 0.41,0.004 h 5.34 l 1.644,0.004 h 1.645 l 1.64,0.004 3.289,0.003 h 1.532 l 1.531,0.004 3.066,0.004 6.129,0.012 h 0.383 l 0.383,0.004 h 0.769 l 1.532,0.004 3.062,0.004 6.129,0.015 h 0.828 l 0.832,0.004 1.66,0.004 3.317,0.008 6.64,0.016 13.266,0.031 24.75,0.062 24.226,0.055 26.254,0.051 24.465,0.043 26.496,0.043 25.985,0.031 24.218,0.027 26.247,0.028 24.488,0.019 23.996,0.02 26.023,0.015 24.278,0.012 26.304,0.012 24.559,0.012 24.07,0.007 26.102,0.008 24.359,0.008 26.391,0.008 25.906,0.004 24.164,0.004 26.199,0.003 24.454,0.004 23.972,0.004 26.008,0.004 24.266,0.004 h 23.699 l 0.426,0.004 h 2.961" />
        </g>
      </g>
      <g
         id="g4559">
        <g
           clip-path="url(#clipPath4565)"
           id="g4561">
          <path
             inkscape:connector-curvature="0"
             id="path4567"
             style="fill:none;stroke:#ff0000;stroke-width:1.60000002;stroke-linecap:square;stroke-linejoin:miter;stroke-miterlimit:3.25;stroke-dasharray:none;stroke-opacity:1"
             d="m 60.855,204.641 h 0.008 v 0.004 l 0.008,0.007 0.016,0.02 0.031,0.043 0.07,0.094 0.137,0.179 0.313,0.407 0.644,0.824 1.207,1.48 2.598,2.918 0.051,0.055 0.054,0.058 0.106,0.114 0.222,0.23 0.465,0.485 1.047,1.05 2.598,2.442 0.09,0.082 0.093,0.082 0.184,0.164 0.383,0.336 0.804,0.691 1.762,1.453 0.234,0.188 0.239,0.187 0.488,0.383 1.023,0.778 2.219,1.605 0.16,0.113 0.161,0.11 0.324,0.226 0.664,0.449 1.383,0.907 2.988,1.843 0.195,0.118 0.199,0.113 0.399,0.234 0.812,0.465 1.688,0.926 3.601,1.836 0.219,0.105 0.223,0.106 0.441,0.211 0.903,0.422 1.851,0.832 3.887,1.617 0.254,0.097 0.25,0.098 0.508,0.195 1.027,0.387 2.102,0.762 4.367,1.449 0.609,0.188 0.613,0.187 1.239,0.367 2.523,0.711 0.641,0.172 0.644,0.172 1.297,0.336 2.637,0.644 0.332,0.079 1.008,0.234 1.351,0.301 2.742,0.578 5.622,1.058 0.703,0.118 0.703,0.121 1.418,0.23 2.859,0.442 0.359,0.054 0.36,0.051 0.723,0.106 1.453,0.199 2.929,0.383 0.368,0.046 0.371,0.047 0.738,0.09 1.484,0.172 2.989,0.328 6.054,0.586 1.422,0.125 1.43,0.117 2.875,0.223 0.719,0.055 2.168,0.152 2.906,0.191 0.726,0.047 2.192,0.129 2.933,0.16 0.735,0.039 0.734,0.036 1.477,0.074 2.953,0.133 0.402,0.019 0.402,0.016 0.801,0.035 1.61,0.062 3.23,0.121 0.402,0.016 0.407,0.012 2.425,0.082 3.247,0.098 0.812,0.023 0.816,0.023 1.625,0.043 3.262,0.078 0.41,0.008 0.407,0.012 0.816,0.016 1.633,0.035 3.273,0.062 0.766,0.016 0.765,0.012 1.532,0.027 3.062,0.047 0.383,0.008 0.383,0.004 0.769,0.011 1.532,0.02 3.07,0.039 0.387,0.004 0.382,0.004 0.77,0.008 1.535,0.015 0.387,0.004 0.383,0.004 2.308,0.023 0.383,0.004 h 0.387 l 0.769,0.008 4.618,0.035 0.835,0.008 0.836,0.004 1.668,0.008 0.836,0.008 2.508,0.011 0.414,0.004 h 0.418 l 2.508,0.012 h 0.418 l 0.418,0.004 0.836,0.004 1.672,0.004 h 0.418 l 0.418,0.004 h 0.84 l 0.417,0.003 h 0.418 l 0.836,0.004 h 0.836 l 0.836,0.004 1.672,0.004 h 1.676 l 0.418,0.004 h 2.09 l 0.84,0.004 h 3.316 l 0.41,0.004 h 13.149 l 0.41,-0.004 h 4.109 l 0.41,-0.004 h 2.875 l 3.289,-0.004 0.383,-0.004 h 1.149 l 1.531,-0.004 3.066,-0.004 6.129,-0.011 h 0.766 l 0.769,-0.004 h 1.532 l 3.062,-0.008 6.129,-0.012 0.414,-0.004 h 1.246 l 1.66,-0.003 3.317,-0.008 6.64,-0.016 13.266,-0.035 24.75,-0.059 24.226,-0.054 26.254,-0.055 24.465,-0.043 26.496,-0.039 25.985,-0.035 24.218,-0.028 26.247,-0.027 24.488,-0.019 23.996,-0.016 26.027,-0.016 24.274,-0.015 26.304,-0.012 24.559,-0.008 24.07,-0.012 26.102,-0.007 24.359,-0.008 26.391,-0.004 25.906,-0.008 24.164,-0.004 26.199,-0.004 24.454,-0.004 23.972,-0.004 26.008,-0.003 h 24.687 l 0.426,-0.004 h 26.239" />
        </g>
      </g>
      <g
         id="g4569">
        <g
           clip-path="url(#clipPath4575)"
           id="g4571">
          <path
             inkscape:connector-curvature="0"
             id="path4577"
             style="fill:none;stroke:#ff0000;stroke-width:1.60000002;stroke-linecap:square;stroke-linejoin:miter;stroke-miterlimit:3.25;stroke-dasharray:none;stroke-opacity:1"
             d="m 996.168,177.176 h -18.055 l -18.054,-0.004 -39.157,-0.008 -36.57,-0.008 -35.859,-0.008 -38.918,-0.011 h -9.082 l -9.082,-0.004 -18.168,-0.008 h -9.848 l -9.848,-0.004 -19.699,-0.008 -0.605,-0.004 h -4.231 l -4.836,-0.004 -29.027,-0.011 h -2.258 l -2.258,-0.004 h -4.511 l -9.032,-0.008 -18.066,-0.008 -0.613,-0.004 h -4.286 l -4.898,-0.004 -9.801,-0.007 -19.605,-0.016 h -4.578 l -4.578,-0.004 -9.161,-0.008 -18.324,-0.019 h -2.246 l -2.246,-0.004 -4.492,-0.004 -8.992,-0.008 -17.989,-0.019 -0.609,-0.004 h -1.828 l -7.324,-0.012 -9.77,-0.012 -19.551,-0.027 h -1.14 l -1.141,-0.004 -2.281,-0.004 -4.567,-0.004 -9.132,-0.015 -18.278,-0.032 -0.621,-0.004 h -0.621 l -1.238,-0.004 -2.481,-0.003 -4.957,-0.008 -9.926,-0.02 -19.867,-0.047 h -1.222 l -1.219,-0.004 -2.442,-0.007 -4.882,-0.012 -9.774,-0.024 -19.574,-0.054 h -0.57 l -0.571,-0.004 h -1.144 l -6.856,-0.024 -9.148,-0.027 -18.328,-0.058 -39.895,-0.141 h -0.582 l -0.582,-0.004 -1.168,-0.004 -2.332,-0.008 -4.672,-0.015 h -0.582 l -0.586,-0.004 -3.504,-0.012 -4.671,-0.012 -0.586,-0.004 h -0.586 l -1.168,-0.004 -2.34,-0.007 -4.676,-0.012 -0.586,-0.004 h -0.586 l -1.168,-0.004 -2.34,-0.004 -0.585,-0.004 h -0.586 l -1.172,-0.004 -2.34,-0.003 h -1.27 l -1.269,-0.004 h -0.633 l -0.637,-0.004 h -1.902 l -0.633,-0.004 h -1.906 l -0.633,-0.004 h -3.809 l -0.632,-0.004 h -9.52 l -0.637,0.004 h -2.539 l -0.632,0.004 h -1.903 l -0.637,0.004 h -1.269 l -0.633,0.004 h -0.633 l -1.269,0.004 h -0.633 l -0.637,0.003 -1.265,0.004 -0.637,0.004 h -0.633 l -1.266,0.008 -2.535,0.012 h -0.621 l -0.621,0.004 -1.246,0.007 -4.969,0.032 -2.484,0.019 -0.617,0.008 -0.621,0.004 -1.243,0.012 -2.476,0.027 -0.617,0.004 -0.621,0.008 -1.239,0.015 -2.472,0.032 -1.235,0.015 -3.703,0.059 -0.613,0.008 -0.617,0.011 -3.692,0.071 -1.226,0.023 -1.227,0.027 -2.449,0.055 -0.613,0.016 -0.61,0.015 -1.222,0.032 -2.438,0.066 -0.57,0.016 -0.567,0.015 -1.132,0.035 -2.266,0.075 -0.563,0.019 -0.566,0.02 -1.129,0.039 -2.25,0.086 -0.558,0.023 -0.563,0.02 -1.121,0.047 -2.234,0.101 -4.442,0.219 -0.555,0.027 -1.652,0.094 -2.199,0.129 -1.094,0.07 -1.09,0.071 -2.175,0.148 -0.54,0.039 -0.542,0.039 -1.079,0.078 -2.148,0.172 -4.25,0.371 -0.57,0.051 -0.571,0.055 -1.132,0.113 -2.258,0.238 -0.563,0.059 -0.558,0.062 -1.114,0.129 -2.211,0.266 -0.546,0.07 -0.551,0.07 -1.09,0.145 -2.16,0.301 -4.231,0.656 -0.523,0.086 -0.52,0.09 -1.031,0.18 -2.035,0.378 -0.504,0.094 -0.504,0.102 -0.996,0.199 -1.969,0.418 -0.484,0.105 -0.485,0.11 -0.96,0.219 -1.887,0.46 -3.649,0.981 -0.414,0.117 -0.414,0.121 -0.812,0.246 -1.602,0.508 -0.394,0.129 -0.391,0.129 -0.773,0.266 -1.512,0.543 -0.371,0.136 -0.367,0.141 -0.731,0.281 -1.418,0.582 -2.691,1.207 -0.641,0.313 -0.625,0.32 -1.215,0.645 -0.297,0.164 -0.293,0.164 -0.574,0.336 -1.105,0.675 -0.531,0.344 -0.516,0.348 -0.992,0.703 -1.805,1.449 -0.207,0.18 -0.199,0.179 -0.391,0.368 -0.738,0.734 -0.176,0.188 -0.172,0.183 -0.328,0.375 -0.617,0.754 -0.149,0.188 -0.14,0.191 -0.27,0.383 -0.129,0.191 -0.125,0.192 -0.242,0.382 -0.113,0.196 -0.109,0.191 -0.207,0.387 -0.196,0.39 -0.176,0.391 -0.082,0.195 -0.156,0.391 -0.07,0.195 -0.067,0.2 -0.062,0.195 -0.113,0.394 -0.051,0.196 -0.047,0.199 -0.047,0.195 -0.039,0.199 -0.035,0.196 -0.031,0.199 -0.028,0.199 -0.023,0.196 -0.02,0.199 -0.015,0.199 -0.012,0.199 -0.004,0.195 -0.004,0.2 v 0.199 l 0.004,0.195 0.008,0.199 0.012,0.2 0.015,0.199 0.024,0.195 0.023,0.199 0.027,0.2 0.032,0.195 0.039,0.199 0.039,0.195 0.047,0.215 0.109,0.43 0.063,0.215 0.066,0.211 0.074,0.215 0.156,0.425 0.086,0.211 0.09,0.211 0.192,0.426 0.211,0.422 0.23,0.418 0.125,0.211 0.125,0.207 0.266,0.418 0.14,0.207 0.145,0.207 0.305,0.414 0.16,0.203 0.16,0.207 0.34,0.406 0.73,0.809 0.195,0.203 0.2,0.199 0.41,0.399 0.871,0.785 0.226,0.195 0.235,0.196 0.476,0.382 1.008,0.762 0.262,0.188 0.269,0.187 0.543,0.371 1.137,0.727 2.469,1.41 0.301,0.16 0.308,0.156 0.625,0.317 1.285,0.617 0.329,0.152 0.332,0.149 0.675,0.3 1.383,0.582 0.356,0.145 0.355,0.141 0.723,0.281 1.476,0.547 3.09,1.039 0.399,0.125 0.402,0.125 0.809,0.246 1.648,0.473 0.418,0.117 0.418,0.113 0.848,0.227 1.726,0.437 0.434,0.106 1.324,0.316 1.793,0.398 3.684,0.754 0.507,0.094 0.512,0.098 1.027,0.183 2.082,0.36 0.524,0.086 0.527,0.086 1.059,0.168 2.14,0.32 0.54,0.078 0.542,0.074 1.09,0.149 2.196,0.285 4.464,0.519 0.563,0.063 0.566,0.058 1.137,0.118 2.285,0.218 0.578,0.055 0.575,0.051 1.156,0.105 2.324,0.192 0.586,0.047 0.582,0.046 1.176,0.09 2.355,0.168 4.762,0.301 0.586,0.035 0.59,0.035 1.179,0.067 2.364,0.121 0.594,0.031 0.593,0.027 1.192,0.059 2.386,0.106 0.598,0.027 0.602,0.023 1.199,0.047 2.406,0.094 4.832,0.16 1.211,0.039 1.215,0.035 2.433,0.063 2.438,0.062 2.445,0.055 0.614,0.012 0.609,0.011 1.227,0.028 2.453,0.043 1.226,0.023 3.692,0.059 2.296,0.031 2.301,0.031 0.574,0.004 0.579,0.008 1.148,0.012 2.309,0.023 0.574,0.008 0.578,0.004 1.152,0.012 1.157,0.007 1.152,0.012 2.312,0.016 2.309,0.015 1.156,0.008 1.16,0.004 1.157,0.008 1.156,0.004 1.156,0.008 1.16,0.004 h 0.578 l 0.579,0.003 1.156,0.004 h 0.582 l 0.578,0.004 1.156,0.004 h 1.16 l 1.157,0.004 0.582,0.004 h 1.738 l 0.578,0.004 h 2.367 l 0.629,0.004 h 12.57 l 1.258,-0.004 h 2.512 l 0.629,-0.004 h 1.887 l 0.629,-0.004 h 1.882 l 2.516,-0.008 h 1.254 l 1.258,-0.004 2.511,-0.004 0.629,-0.003 h 0.629 l 1.254,-0.004 2.512,-0.008 5.019,-0.012 0.586,-0.004 h 0.586 l 3.516,-0.012 4.68,-0.011 9.359,-0.032 18.684,-0.066 36.507,-0.125 0.618,-0.004 h 0.621 l 8.64,-0.027 9.867,-0.031 19.704,-0.055 h 0.574 l 0.574,-0.004 1.148,-0.004 2.293,-0.004 4.59,-0.012 9.172,-0.023 18.32,-0.043 h 0.622 l 0.617,-0.004 h 1.242 l 2.48,-0.008 4.957,-0.007 9.914,-0.02 19.805,-0.039 h 1.156 l 1.153,-0.004 2.308,-0.004 4.621,-0.008 9.231,-0.011 18.453,-0.028 h 0.566 l 0.567,-0.004 h 1.129 l 2.258,-0.004 4.519,-0.003 9.035,-0.012 18.063,-0.024 h 1.222 l 1.223,-0.004 h 2.449 l 4.895,-0.007 9.785,-0.008 19.559,-0.02 h 2.281 l 2.281,-0.004 4.563,-0.004 9.121,-0.007 18.234,-0.012 0.617,-0.004 h 4.321 l 4.941,-0.004 9.871,-0.008 19.742,-0.011 h 2.422 l 2.422,-0.004 h 4.844 l 9.687,-0.008 19.367,-0.008 h 0.567 l 0.562,-0.004 h 7.903 l 9.027,-0.008 18.055,-0.004 0.613,-0.003 h 9.176 l 9.785,-0.004 19.566,-0.008 h 2.282 l 2.285,-0.004 h 4.566 l 9.129,-0.004 18.262,-0.004 35.789,-0.008 38.82,-0.011 36.211,-0.004 h 1.266 l 1.261,-0.004 h 22.735 l 5.051,-0.004 h 10.101" />
          <path
             inkscape:connector-curvature="0"
             id="path4579"
             style="fill:none;stroke:#0000ff;stroke-width:1.60000002;stroke-linecap:square;stroke-linejoin:miter;stroke-miterlimit:3.25;stroke-dasharray:none;stroke-opacity:1"
             d="m 221.336,204.723 0.008,0.023 0.004,0.016 0.007,0.023 0.008,0.012 0.012,0.027 0.016,0.024 0.019,0.023 0.008,0.016 0.008,0.011 0.023,0.024 0.008,0.012 0.063,0.062 0.027,0.024 0.016,0.015 0.046,0.035 0.071,0.051 0.015,0.012 0.059,0.035 0.082,0.051 0.023,0.011 0.02,0.012 0.047,0.024 0.097,0.05 0.028,0.012 0.023,0.012 0.164,0.07 0.246,0.098 0.071,0.023 0.074,0.028 0.152,0.05 0.328,0.098 0.043,0.016 0.047,0.011 0.086,0.024 0.188,0.051 0.39,0.097 0.051,0.012 0.055,0.012 0.105,0.023 0.215,0.047 0.453,0.094 0.996,0.183 0.063,0.012 0.062,0.008 0.125,0.019 0.254,0.043 0.531,0.079 0.067,0.011 0.07,0.008 0.137,0.02 0.277,0.039 0.578,0.078 0.071,0.008 0.074,0.011 0.148,0.016 0.305,0.039 0.617,0.07 1.305,0.137 0.164,0.016 0.504,0.047 0.683,0.062 0.086,0.008 0.09,0.008 0.176,0.015 0.352,0.028 0.722,0.058 0.09,0.008 0.094,0.008 0.183,0.012 0.372,0.027 0.75,0.055 1.554,0.097 0.106,0.008 0.109,0.004 0.215,0.012 0.433,0.027 0.879,0.047 0.114,0.004 0.109,0.008 0.227,0.011 0.449,0.024 0.906,0.039 0.117,0.008 0.114,0.004 0.23,0.011 0.465,0.02 0.933,0.035 1.903,0.07 0.453,0.016 0.453,0.012 0.91,0.027 0.227,0.008 0.23,0.008 0.461,0.011 0.926,0.024 h 0.117 l 0.117,0.004 0.231,0.004 0.469,0.011 0.937,0.02 0.117,0.004 h 0.117 l 0.239,0.004 0.472,0.011 0.95,0.016 h 0.128 l 0.129,0.004 0.774,0.012 h 0.133 l 0.129,0.003 h 0.257 l 0.52,0.008 0.133,0.004 h 0.129 l 0.261,0.004 0.52,0.004 0.133,0.004 h 0.39 l 0.524,0.008 h 0.261 l 0.262,0.004 h 0.262 l 0.266,0.004 h 0.261 l 0.262,0.003 0.527,0.004 h 0.789 l 0.262,0.004 h 0.793 l 0.262,0.004 h 3.886 l 0.262,-0.004 h 0.774 l 0.261,-0.004 h 0.516 l 0.516,-0.004 h 0.257 l 0.258,-0.003 h 0.516 l 0.129,-0.004 h 0.386 l 0.516,-0.004 h 0.121 l 0.117,-0.004 h 0.243 l 0.476,-0.004 0.957,-0.008 0.121,-0.004 h 0.356 l 0.476,-0.008 0.953,-0.007 0.118,-0.004 h 0.117 l 0.238,-0.004 0.473,-0.004 0.945,-0.012 1.875,-0.027 h 0.129 l 0.125,-0.004 0.254,-0.004 1.512,-0.023 1.996,-0.036 h 0.125 l 0.121,-0.004 0.25,-0.003 0.492,-0.012 0.984,-0.016 1.95,-0.043 h 0.113 l 0.109,-0.004 0.227,-0.004 0.449,-0.011 0.895,-0.02 1.773,-0.039 3.465,-0.09 h 0.105 l 0.102,-0.004 0.211,-0.007 0.414,-0.008 0.828,-0.024 1.633,-0.047 3.183,-0.097 6.504,-0.219 5.551,-0.219 5.426,-0.242 4.711,-0.246 3.836,-0.227 0.058,-0.003 0.063,-0.004 0.117,-0.008 0.238,-0.016 0.469,-0.031 0.906,-0.063 1.696,-0.128 h 0.046 l 0.141,-0.012 0.184,-0.016 0.363,-0.031 0.699,-0.059 h 0.043 l 0.129,-0.011 0.168,-0.016 0.328,-0.031 0.629,-0.059 0.086,-0.008 0.082,-0.007 0.16,-0.016 0.317,-0.031 0.605,-0.063 0.07,-0.008 0.075,-0.007 0.14,-0.016 0.278,-0.031 0.519,-0.067 0.063,-0.008 0.058,-0.007 0.121,-0.016 0.231,-0.031 0.433,-0.063 0.024,-0.004 0.027,-0.004 0.051,-0.007 0.098,-0.016 0.191,-0.031 0.355,-0.063 h 0.016 l 0.059,-0.011 0.074,-0.016 0.144,-0.027 0.016,-0.004 0.02,-0.004 0.031,-0.008 0.066,-0.016 0.125,-0.027 0.031,-0.008 0.028,-0.008 0.058,-0.015 0.11,-0.028 0.023,-0.007 0.028,-0.008 0.046,-0.016 0.094,-0.027 0.024,-0.008 0.019,-0.008 0.043,-0.015 0.024,-0.008 0.058,-0.024 0.016,-0.008 0.019,-0.007 0.063,-0.032 0.027,-0.015 0.016,-0.008 0.011,-0.008 0.004,-0.004 0.008,-0.004 0.012,-0.007 0.004,-0.004 0.004,-0.008 0.011,-0.008 0.02,-0.016 0.016,-0.015 v -0.004 l 0.015,-0.016 v -0.004 l 0.008,-0.007 v -0.004 l 0.004,-0.004 v -0.004 l 0.004,-0.004 v -0.008 l 0.004,-0.004 v -0.012 l 0.004,-0.003 v -0.028 l -0.004,-0.004 v -0.011 l -0.004,-0.004 v -0.004 l -0.004,-0.004 v -0.004 l -0.004,-0.004 v -0.004 l -0.004,-0.008 -0.004,-0.004 v -0.003 l -0.011,-0.012 v -0.004 l -0.012,-0.012 h -0.004 l -0.024,-0.023 -0.019,-0.016 -0.004,-0.004 -0.008,-0.004 -0.008,-0.008 -0.039,-0.019 -0.011,-0.008 -0.028,-0.015 -0.031,-0.016 -0.031,-0.012 -0.071,-0.031 -0.015,-0.008 -0.02,-0.004 -0.129,-0.047 h -0.011 l -0.082,-0.027 -0.102,-0.027 -0.25,-0.063 -0.019,-0.004 -0.106,-0.023 -0.148,-0.031 -0.332,-0.063 -0.02,-0.004 -0.023,-0.004 -0.043,-0.008 -0.282,-0.046 -0.41,-0.063 -0.027,-0.004 -0.024,-0.004 -0.05,-0.008 -0.106,-0.015 -0.211,-0.028 -0.453,-0.058 -0.062,-0.008 -0.059,-0.008 -0.121,-0.015 -0.246,-0.028 -0.524,-0.058 -0.039,-0.004 -0.035,-0.004 -0.222,-0.024 -0.309,-0.031 -0.648,-0.066 -1.415,-0.125 -0.093,-0.008 -0.09,-0.008 -0.188,-0.015 -0.382,-0.032 -0.793,-0.062 -1.707,-0.125 -3.598,-0.231 -4.516,-0.246 -4.785,-0.23 -5.211,-0.219 -6.222,-0.227 -0.094,-0.003 h -0.098 l -0.187,-0.008 -0.383,-0.012 -0.774,-0.027 -1.562,-0.051 -3.211,-0.098 -0.113,-0.004 h -0.11 l -0.222,-0.008 -0.446,-0.011 -0.902,-0.028 -1.82,-0.046 -0.114,-0.004 -0.117,-0.004 -0.23,-0.004 -0.461,-0.012 -0.93,-0.027 -1.883,-0.043 -0.113,-0.004 -0.109,-0.004 -0.223,-0.004 -0.445,-0.012 -0.895,-0.019 -1.808,-0.039 h -0.114 l -0.113,-0.004 -0.227,-0.004 -0.457,-0.012 -0.918,-0.015 -1.855,-0.036 -0.113,-0.003 h -0.114 l -0.23,-0.004 -0.457,-0.008 -0.918,-0.016 -1.856,-0.027 -0.113,-0.004 h -0.117 l -0.234,-0.004 -0.465,-0.008 -0.938,-0.011 -1.883,-0.024 h -0.128 l -0.129,-0.004 -0.258,-0.004 -0.512,-0.004 -1.031,-0.011 h -0.258 l -0.258,-0.004 -0.519,-0.004 -1.035,-0.008 h -0.258 l -0.262,-0.004 -0.52,-0.004 h -0.519 l -0.52,-0.004 h -0.261 l -0.258,-0.004 h -0.652 l -0.129,-0.004 h -1.395 l -0.121,-0.003 h -2.68 l -0.121,0.003 h -1.097 l -0.243,0.004 h -0.488 l -0.484,0.004 h -0.489 l -0.484,0.004 h -0.121 l -0.121,0.004 h -0.242 l -0.485,0.004 h -0.132 l -0.129,0.004 h -0.262 l -0.524,0.004 -0.132,0.004 h -0.129 l -0.262,0.004 -0.523,0.004 -0.129,0.003 h -0.129 l -0.262,0.004 -0.519,0.008 -1.036,0.012 -0.129,0.004 h -0.128 l -0.258,0.008 -0.516,0.007 -1.023,0.02 h -0.129 l -0.129,0.004 -0.254,0.004 -0.508,0.011 -1.012,0.024 -0.125,0.004 h -0.121 l -0.246,0.008 -0.492,0.011 -0.977,0.028 -0.125,0.004 -0.363,0.011 -1.441,0.047 -0.117,0.004 -0.121,0.004 -0.239,0.008 -0.472,0.015 -0.938,0.036 -1.84,0.078 -0.105,0.008 -0.317,0.011 -0.418,0.024 -0.828,0.039 -0.101,0.008 -0.102,0.003 -0.207,0.012 -0.406,0.024 -0.801,0.047 -0.098,0.003 -0.101,0.008 -0.195,0.012 -0.395,0.023 -0.773,0.051 -1.5,0.11 -0.196,0.015 -0.199,0.016 -0.391,0.031 -0.765,0.063 -0.094,0.011 -0.281,0.024 -0.367,0.035 -0.723,0.07 -0.09,0.008 -0.086,0.008 -0.176,0.019 -0.347,0.035 -0.676,0.079 -1.277,0.156 -0.071,0.008 -0.07,0.011 -0.422,0.059 -0.535,0.078 -0.066,0.008 -0.067,0.012 -0.129,0.019 -0.254,0.043 -0.488,0.082 -0.059,0.012 -0.058,0.008 -0.117,0.023 -0.231,0.043 -0.437,0.086 -0.801,0.176 -0.043,0.012 -0.047,0.011 -0.086,0.024 -0.176,0.043 -0.324,0.09 -0.078,0.023 -0.223,0.07 -0.269,0.094 -0.035,0.012 -0.094,0.035 -0.117,0.047 -0.055,0.023 -0.059,0.024 -0.101,0.047 -0.027,0.011 -0.024,0.012 -0.047,0.027 -0.094,0.047 -0.019,0.012 -0.023,0.012 -0.04,0.023 -0.078,0.051 -0.039,0.023 -0.035,0.028 -0.019,0.015 -0.016,0.012 -0.031,0.027 -0.016,0.012 -0.016,0.016 -0.027,0.023 -0.027,0.027 -0.024,0.028 -0.011,0.011 -0.012,0.016 -0.008,0.012 -0.012,0.015 -0.015,0.024 -0.016,0.027 -0.008,0.016 -0.004,0.012 -0.007,0.015 -0.004,0.012 -0.008,0.012 -0.004,0.015 -0.004,0.012 v 0.016 l -0.004,0.011 -0.004,0.016 v 0.094 l 0.008,0.023 v 0.016 l 0.004,0.011 0.004,0.016 0.008,0.012 0.004,0.015 0.003,0.012 0.008,0.012 0.008,0.016 0.008,0.011 0.008,0.016 0.008,0.012 0.019,0.027 0.008,0.012 0.012,0.015 0.023,0.028 0.051,0.05 0.015,0.012 0.012,0.016 0.028,0.023 0.066,0.047 0.016,0.016 0.015,0.011 0.039,0.024 0.078,0.051 0.039,0.023 0.047,0.023 0.09,0.051 0.207,0.094 0.028,0.016 0.027,0.011 0.058,0.024 0.122,0.047 0.265,0.093 0.141,0.047 0.148,0.047 0.321,0.094 0.046,0.012 0.047,0.015 0.094,0.024 0.199,0.05 0.422,0.102 0.11,0.023 0.113,0.024 0.23,0.051 0.489,0.093 0.125,0.024 0.128,0.023 0.262,0.047 0.547,0.09 0.074,0.012 0.211,0.035 0.293,0.043 0.074,0.012 0.079,0.011 0.148,0.02 0.078,0.012 0.074,0.011 0.078,0.012 0.079,0.008" />
        </g>
      </g>
      <g
         id="g4581">
        <path
           inkscape:connector-curvature="0"
           id="path4583"
           style="fill:none;stroke:#0000ff;stroke-width:1.60000002;stroke-linecap:square;stroke-linejoin:miter;stroke-miterlimit:3.25;stroke-dasharray:none;stroke-opacity:1"
           d="m 60.855,204.641 h -0.003 v 0.004 h -0.004 v 0.003 l -0.004,0.004 H 60.84 v 0.008 l -0.016,0.016 -0.004,0.008 -0.007,0.007 -0.012,0.016 -0.008,0.012 -0.012,0.015 -0.015,0.02 -0.02,0.023 -0.019,0.032 -0.024,0.031 -0.031,0.043 -0.035,0.043 -0.039,0.054 -0.051,0.071 -0.059,0.074 -0.07,0.102 -0.086,0.117 -0.098,0.133 -0.125,0.168 -0.136,0.191 -0.16,0.227 -0.208,0.292 -0.23,0.333 -0.301,0.437 -0.34,0.5 -0.394,0.598 -0.516,0.797 -0.582,0.929 -0.762,1.274 -0.917,1.617 -1.04,1.965 -1.378,2.851 -1.579,3.699 -0.027,0.071 -0.027,0.066 -0.055,0.137 -0.109,0.277 -0.219,0.574 -0.457,1.235 -0.027,0.082 -0.032,0.082 -0.058,0.164 -0.121,0.336 -0.243,0.695 -0.5,1.508 -0.07,0.219 -0.066,0.219 -0.145,0.449 -0.285,0.945 -0.594,2.066 -0.039,0.141 -0.035,0.141 -0.078,0.281 -0.152,0.578 -0.313,1.223 -0.637,2.711 -0.078,0.343 -0.074,0.352 -0.152,0.719 -0.309,1.515 -0.039,0.196 -0.039,0.199 -0.074,0.406 -0.157,0.832 -0.312,1.766 -0.039,0.23 -0.039,0.235 -0.078,0.472 -0.157,0.977 -0.308,2.074 -0.078,0.547 -0.078,0.559 -0.157,1.156 -0.312,2.469 -0.043,0.363 -0.043,0.367 -0.086,0.746 -0.172,1.559 -0.344,3.359 -0.043,0.445 -0.043,0.454 -0.085,0.918 -0.172,1.914 -0.352,4.14 -0.047,0.547 -0.043,0.559 -0.09,1.136 -0.183,2.371 -0.367,5.106 -0.047,0.68 -0.051,0.691 -0.098,1.41 -0.207,2.93 -0.051,0.758 -0.054,0.765 -0.113,1.563 -0.055,0.797 -0.059,0.804 -0.058,0.821 -0.063,0.828" />
        <path
           inkscape:connector-curvature="0"
           id="path4585"
           style="fill:none;stroke:#0000ff;stroke-width:1.60000002;stroke-linecap:square;stroke-linejoin:miter;stroke-miterlimit:3.25;stroke-dasharray:none;stroke-opacity:1"
           d="m 41.828,286.633 -0.004,0.055 -0.004,0.058 -0.007,0.109 -0.012,0.223 -0.031,0.442 -0.059,0.886 -0.125,1.762 -0.273,3.789 -0.266,3.492 -0.274,3.379 -0.304,3.617 -0.297,3.325 -0.328,3.55 -0.336,3.426 -0.324,3.141 -0.36,3.347 -0.344,3.067 -0.347,2.953 -0.387,3.137 -0.371,2.863 -0.406,3.039 -0.414,2.91 -0.391,2.649 -0.434,2.8 -0.41,2.547 -0.453,2.684 -0.457,2.551 -0.43,2.312 -0.472,2.422 -0.453,2.187 -0.446,2.075 -0.492,2.164 -0.465,1.945 -0.511,2.016 -0.504,1.894 -0.481,1.688 -0.523,1.742 -0.492,1.543 -0.489,1.43 -0.535,1.464 -0.5,1.286 -0.551,1.296 -0.515,1.125 -0.508,1.016 -0.555,1.012 -0.519,0.859 -0.567,0.828 -0.558,0.719 -0.524,0.582 -0.011,0.008 -0.008,0.012 -0.02,0.015 -0.035,0.039 -0.07,0.071 -0.141,0.136 -0.285,0.254 -0.016,0.016 -0.019,0.012 -0.031,0.027 -0.067,0.055 -0.133,0.105 -0.007,0.008 -0.012,0.004 -0.016,0.015 -0.031,0.024 -0.066,0.051 -0.137,0.093 -0.016,0.008 -0.047,0.035 -0.066,0.043 -0.133,0.082 -0.015,0.008 -0.016,0.012 -0.031,0.019 -0.2,0.106 -0.007,0.008 -0.008,0.004 -0.02,0.007 -0.035,0.02 -0.07,0.035 -0.141,0.063 -0.012,0.004 -0.023,0.011 -0.039,0.016 -0.07,0.027 -0.141,0.051 -0.016,0.008 -0.019,0.004 -0.031,0.011 -0.067,0.024 h -0.008 l -0.007,0.004 -0.02,0.004 -0.031,0.011 -0.067,0.016 -0.007,0.004 h -0.008 l -0.02,0.004 -0.031,0.008 -0.066,0.015 -0.008,0.004 h -0.008 l -0.02,0.004 -0.031,0.008 -0.066,0.012 -0.008,0.004 h -0.012 l -0.019,0.003 -0.035,0.008 H 20.5 l -0.02,0.004 -0.035,0.004 -0.007,0.004 h -0.012 l -0.02,0.004 -0.035,0.004 h -0.019 l -0.02,0.004 -0.035,0.004 h -0.02 l -0.019,0.003 h -0.043 l -0.012,0.004 h -0.062 l -0.012,0.004 H 20" />
        <path
           inkscape:connector-curvature="0"
           id="path4587"
           style="fill:none;stroke:#0000ff;stroke-width:1.60000002;stroke-linecap:square;stroke-linejoin:miter;stroke-miterlimit:3.25;stroke-dasharray:none;stroke-opacity:1"
           d="m 60.855,204.621 h -0.003 v -0.004 h -0.004 v -0.004 h -0.004 l -0.004,-0.004 v -0.004 l -0.004,-0.003 -0.004,-0.008 -0.008,-0.008 -0.004,-0.008 -0.019,-0.019 -0.008,-0.016 -0.012,-0.016 -0.015,-0.019 -0.02,-0.024 -0.019,-0.027 -0.024,-0.035 -0.031,-0.039 -0.035,-0.047 -0.039,-0.055 -0.051,-0.066 -0.059,-0.078 -0.07,-0.102 -0.086,-0.117 -0.098,-0.129 -0.125,-0.172 -0.136,-0.191 -0.16,-0.223 -0.208,-0.297 -0.23,-0.332 -0.301,-0.437 -0.34,-0.5 -0.394,-0.594 -0.516,-0.801 -0.582,-0.929 -0.762,-1.274 -0.917,-1.617 -1.04,-1.961 -1.378,-2.852 -1.579,-3.703 -0.027,-0.066 -0.027,-0.07 -0.055,-0.137 -0.109,-0.278 -0.219,-0.574 -0.457,-1.234 -0.027,-0.078 -0.032,-0.082 -0.058,-0.164 -0.121,-0.336 -0.243,-0.699 -0.5,-1.508 -0.035,-0.11 -0.035,-0.105 -0.066,-0.223 -0.145,-0.449 -0.285,-0.941 -0.594,-2.071 -0.039,-0.14 -0.035,-0.137 -0.078,-0.285 -0.152,-0.578 -0.313,-1.219 -0.637,-2.715 -0.078,-0.344 -0.074,-0.347 -0.152,-0.719 -0.309,-1.516 -0.078,-0.398 -0.074,-0.406 -0.157,-0.832 -0.312,-1.766 -0.078,-0.461 -0.078,-0.473 -0.157,-0.976 -0.308,-2.078 -0.078,-0.547 -0.078,-0.559 -0.157,-1.156 -0.312,-2.469 -0.043,-0.359 -0.043,-0.367 -0.086,-0.75 -0.172,-1.555 -0.344,-3.363 -0.043,-0.446 -0.043,-0.449 -0.085,-0.922 -0.172,-1.914 -0.352,-4.137 -0.047,-0.55 -0.043,-0.555 -0.09,-1.141 -0.183,-2.367 -0.367,-5.105 -0.047,-0.684 -0.051,-0.691 -0.098,-1.41 -0.207,-2.93 -0.051,-0.758 -0.054,-0.766 -0.113,-1.562 -0.055,-0.797 -0.059,-0.805 -0.058,-0.816 -0.063,-0.832" />
        <path
           inkscape:connector-curvature="0"
           id="path4589"
           style="fill:none;stroke:#0000ff;stroke-width:1.60000002;stroke-linecap:square;stroke-linejoin:miter;stroke-miterlimit:3.25;stroke-dasharray:none;stroke-opacity:1"
           d="m 20,21.523 h 0.09 l 0.008,0.004 h 0.086 l 0.015,0.004 h 0.031 l 0.036,0.004 h 0.015 l 0.016,0.004 h 0.035 l 0.008,0.004 h 0.023 l 0.035,0.004 0.008,0.004 h 0.024 l 0.035,0.008 0.066,0.007 0.008,0.004 h 0.008 l 0.019,0.004 0.036,0.004 0.074,0.016 h 0.008 l 0.007,0.004 0.02,0.004 0.105,0.023 0.012,0.004 0.008,0.004 0.016,0.004 0.039,0.008 0.07,0.019 0.144,0.047 0.016,0.008 0.016,0.004 0.035,0.011 0.066,0.028 0.133,0.051 0.012,0.003 0.023,0.012 0.035,0.016 0.2,0.094 0.031,0.015 0.035,0.02 0.066,0.035 0.129,0.074 0.016,0.008 0.02,0.012 0.031,0.019 0.066,0.039 0.129,0.086 0.012,0.004 0.008,0.008 0.015,0.012 0.035,0.023 0.075,0.051 0.14,0.105 0.285,0.227 0.008,0.008 0.008,0.004 0.016,0.015 0.035,0.027 0.066,0.059 0.129,0.121 0.266,0.254 0.57,0.629 0.559,0.719 0.519,0.754 0.563,0.914 0.519,0.941 0.508,1.008 0.547,1.184 0.504,1.191 0.547,1.387 0.531,1.449 0.492,1.437 0.527,1.649 0.489,1.621 0.523,1.848 0.508,1.902 0.465,1.855 0.504,2.098 0.461,2.039 0.449,2.07 0.476,2.325 0.442,2.25 0.469,2.515 0.453,2.547 0.414,2.449 0.441,2.731 0.406,2.621 0.391,2.629 0.41,2.926 0.379,2.793 0.402,3.097 0.364,2.957 0.351,2.957 0.368,3.266 0.335,3.109 0.352,3.43 0.336,3.426 0.305,3.25 0.32,3.578 0.285,3.39 0.274,3.368 0.281,3.703 0.258,3.5 0.004,0.062 0.003,0.059 0.008,0.125 0.02,0.246 0.031,0.492 0.07,0.985 0.016,0.25 0.019,0.246 0.032,0.496 0.008,0.125 0.007,0.121 0.02,0.25 0.016,0.25 0.003,0.058 0.012,0.188" />
      </g>
      <g
         id="g4591">
        <g
           clip-path="url(#clipPath4597)"
           id="g4593">
          <path
             inkscape:connector-curvature="0"
             id="path4599"
             style="fill:none;stroke:#ff0000;stroke-width:1.60000002;stroke-linecap:square;stroke-linejoin:miter;stroke-miterlimit:3.25;stroke-dasharray:none;stroke-opacity:1"
             d="m 56.605,250.391 0.11,-0.047 0.113,-0.043 0.219,-0.086 0.445,-0.156 0.11,-0.039 0.113,-0.036 0.219,-0.07 0.449,-0.125 0.109,-0.031 0.113,-0.028 0.223,-0.054 0.113,-0.028 0.11,-0.023 0.226,-0.051 0.11,-0.023 0.113,-0.02 0.227,-0.043 0.449,-0.078 0.566,-0.078 0.113,-0.012 0.227,-0.027 0.227,-0.023 0.117,-0.012 0.113,-0.008 0.113,-0.012 0.114,-0.008 0.23,-0.015 0.113,-0.008 0.114,-0.004 0.113,-0.008 0.117,-0.004 0.113,-0.007 0.118,-0.004 0.226,-0.008 h 0.117 l 0.114,-0.004 0.117,-0.004 h 0.703 l 0.125,0.004 h 0.125 l 0.129,0.004 0.25,0.008 0.129,0.004 0.25,0.007 0.129,0.004 0.125,0.008 0.129,0.008 0.125,0.004 0.128,0.008 0.254,0.015 0.129,0.012 0.125,0.008 0.258,0.019 0.125,0.012 0.129,0.008 0.516,0.047 0.773,0.082 0.516,0.062 0.523,0.067 1.047,0.148 0.129,0.02 0.133,0.019 0.261,0.039 0.532,0.086 1.062,0.18 0.125,0.023 0.125,0.02 0.25,0.047 0.5,0.09 1.008,0.191 2.035,0.41 4.164,0.902 8.5,1.918 9.707,2.051 0.145,0.028 0.144,0.031 0.293,0.055 0.582,0.117 1.168,0.222 2.356,0.442 4.777,0.84 0.656,0.109 0.653,0.105 1.316,0.211 2.649,0.411 0.168,0.027 0.164,0.023 0.332,0.051 0.668,0.098 1.339,0.191 2.692,0.371 0.164,0.02 0.164,0.023 0.332,0.043 0.668,0.086 1.332,0.172 2.68,0.324 0.672,0.078 0.675,0.078 1.348,0.153 2.715,0.289 0.156,0.016 0.16,0.015 0.317,0.031 0.636,0.067 1.274,0.125 2.558,0.238 0.161,0.016 0.16,0.011 0.32,0.032 0.641,0.054 1.285,0.11 2.578,0.211 0.351,0.031 0.352,0.027 0.699,0.051 1.407,0.106 2.82,0.199 0.703,0.047 0.711,0.046 1.414,0.09 2.84,0.172 0.164,0.012 0.168,0.008 0.996,0.058 1.328,0.071 2.668,0.14 0.164,0.008 0.504,0.024 0.668,0.035 1.336,0.062 2.68,0.117 0.328,0.016 0.328,0.012 0.656,0.027 1.316,0.055 2.637,0.101 0.168,0.004 0.164,0.008 0.328,0.012 0.661,0.023 1.324,0.043 2.644,0.086 0.18,0.008 0.18,0.004 1.078,0.035 1.437,0.039 2.879,0.078 0.18,0.008 0.18,0.004 0.363,0.008 0.719,0.019 1.445,0.035 2.887,0.067 h 0.168 l 0.503,0.011 0.676,0.016 1.348,0.027 2.703,0.051 0.336,0.008 0.34,0.004 0.672,0.012 1.355,0.023 2.703,0.043 0.184,0.004 h 0.183 l 0.368,0.008 0.734,0.008 1.465,0.023 2.937,0.035 0.368,0.008 2.57,0.027 2.941,0.032 0.18,0.004 h 0.184 l 0.359,0.003 0.723,0.008 1.445,0.012 2.887,0.023 0.183,0.004 h 0.18 l 0.359,0.004 0.723,0.004 1.449,0.012 2.891,0.019 h 0.336 l 0.34,0.004 0.671,0.004 1.352,0.008 h 0.336 l 0.336,0.004 2.027,0.012 h 0.672 l 2.027,0.011 2.7,0.012 h 0.734 l 0.731,0.004 1.464,0.004 h 0.368 l 0.367,0.004 h 0.73 l 1.465,0.004 0.184,0.004 h 1.281 l 1.469,0.003 h 0.179 l 0.184,0.004 h 1.101 l 1.465,0.004 h 1.368 l 1.367,0.004 h 0.687 l 0.684,0.004 h 2.906 l 0.172,0.004 h 4.875 l 0.371,0.004 h 12.563 l 0.73,-0.004 h 6.004 l 0.183,-0.004 h 3.907 l 1.359,-0.004 h 2.715 l 5.434,-0.008 h 0.734 l 0.738,-0.004 h 1.473 l 2.945,-0.003 5.887,-0.008 10.996,-0.02 10.773,-0.015 11.688,-0.024 10.902,-0.015 11.817,-0.02 11.593,-0.02 10.809,-0.015 11.723,-0.02 10.937,-0.015 10.723,-0.012 11.629,-0.016 10.847,-0.011 11.762,-0.012 10.977,-0.012 10.761,-0.012 11.668,-0.011 10.891,-0.008 11.801,-0.008 11.582,-0.008 10.801,-0.007 11.714,-0.008 10.934,-0.008 10.719,-0.004 11.625,-0.008 10.847,-0.004 h 3.028 l 3.027,-0.004 h 6.055" />
        </g>
      </g>
      <g
         id="g4601">
        <path
           inkscape:connector-curvature="0"
           id="path4603"
           style="fill:none;stroke:#ff0000;stroke-width:1.60000002;stroke-linecap:square;stroke-linejoin:miter;stroke-miterlimit:3.25;stroke-dasharray:none;stroke-opacity:1"
           d="m 56.605,250.391 h -0.003 l -0.016,0.007 -0.023,0.008 -0.043,0.02 -0.09,0.039 -0.176,0.078 -0.383,0.176 -0.355,0.179 -0.344,0.192 -0.379,0.219 -0.348,0.222 -0.379,0.254 -0.371,0.274 -0.343,0.269 -0.375,0.313 -0.348,0.312 -0.34,0.324 -0.367,0.379 -0.34,0.375 -0.371,0.434 -0.359,0.457 -0.336,0.453 -0.364,0.52 -0.339,0.519 -0.364,0.602 -0.355,0.629 -0.332,0.625 -0.356,0.722 -0.332,0.723 -0.324,0.75 -0.348,0.871 -0.32,0.867 -0.348,1 -0.336,1.055 -0.312,1.055 -0.332,1.218 -0.309,1.215 -0.3,1.274 -0.321,1.48 -0.297,1.48 -0.316,1.715 -0.293,1.719 -0.285,1.797 -0.305,2.09 -0.281,2.086 -0.309,2.414 -0.304,2.535 -0.289,2.512 -0.317,2.894 -0.305,2.883 -0.3,2.984 -0.34,3.434 -0.336,3.387 -0.004,0.058 -0.008,0.063 -0.035,0.363 -0.047,0.488 -0.101,0.989 -0.004,0.062 -0.008,0.063 -0.035,0.375 -0.051,0.5 -0.008,0.062 -0.004,0.063 -0.015,0.125 -0.024,0.254 -0.008,0.062 -0.004,0.066 -0.015,0.125 -0.004,0.063 -0.008,0.062 -0.008,0.067 -0.004,0.062" />
        <path
           inkscape:connector-curvature="0"
           id="path4605"
           style="fill:none;stroke:#ff0000;stroke-width:1.60000002;stroke-linecap:square;stroke-linejoin:miter;stroke-miterlimit:3.25;stroke-dasharray:none;stroke-opacity:1"
           d="m 20,12.449 h 0.109 l 0.11,0.004 0.328,0.024 0.328,0.046 0.109,0.02 0.219,0.047 0.11,0.027 0.109,0.031 0.105,0.032 0.219,0.07 0.109,0.039 0.329,0.129 0.105,0.051 0.109,0.047 0.329,0.164 0.105,0.058 0.219,0.125 0.429,0.278 0.11,0.074 0.105,0.074 0.215,0.16 0.43,0.344 0.105,0.09 0.106,0.094 0.215,0.187 0.422,0.406 0.105,0.106 0.316,0.328 0.418,0.461 0.832,1 0.114,0.144 0.109,0.145 0.223,0.293 0.445,0.609 0.875,1.282 1.707,2.781 0.106,0.179 0.105,0.184 0.207,0.363 0.418,0.739 0.82,1.492 1.602,3.012 0.094,0.175 0.089,0.176 0.184,0.352 0.367,0.695 0.723,1.383 1.426,2.679 0.086,0.165 0.089,0.16 0.176,0.324 0.348,0.641 0.695,1.246 1.375,2.367 0.086,0.14 0.082,0.141 0.168,0.273 0.332,0.54 0.668,1.046 1.32,1.957 0.082,0.118 0.086,0.113 0.164,0.23 0.329,0.45 0.656,0.867 1.312,1.601 0.086,0.102 0.09,0.105 0.18,0.2 0.355,0.394 0.707,0.75 0.09,0.09 0.09,0.094 0.176,0.176 0.355,0.347 0.711,0.664 0.09,0.082 0.09,0.078 0.176,0.157 0.355,0.308 0.711,0.582 1.426,1.059 0.086,0.058 0.082,0.059 0.168,0.109 0.332,0.223 0.668,0.418 0.082,0.051 0.086,0.051 0.168,0.101 0.332,0.192 0.672,0.371 0.082,0.043 0.086,0.047 0.164,0.085 0.336,0.168 0.671,0.325 1.348,0.589 0.094,0.036 0.09,0.039 0.551,0.211 0.73,0.265 0.094,0.032 0.09,0.031 0.183,0.062 0.367,0.121 0.739,0.231 0.089,0.027 0.094,0.028 0.184,0.05 0.371,0.106 0.738,0.195 1.481,0.348 0.09,0.019 0.089,0.016 0.184,0.039 0.363,0.074 0.731,0.137 0.093,0.019 0.09,0.016 0.551,0.094 0.731,0.117 0.093,0.012 0.09,0.015 0.184,0.028 0.367,0.05 0.734,0.098 0.094,0.012 0.09,0.012 0.183,0.023 0.368,0.043 0.738,0.078 0.086,0.008 0.086,0.012 0.172,0.015 0.343,0.035 0.692,0.059 0.344,0.031 0.343,0.028 0.692,0.046 0.086,0.008 0.09,0.004 0.171,0.012 0.348,0.023 0.172,0.008 0.172,0.012 0.347,0.019 0.172,0.008 0.176,0.008 0.344,0.02 0.695,0.027 0.188,0.008 0.191,0.008 0.375,0.011 0.094,0.004 0.098,0.004 0.187,0.008 0.379,0.008 0.187,0.007 0.188,0.004 0.094,0.004 h 0.097 l 0.188,0.004 0.094,0.004 h 0.093 l 0.192,0.004 0.379,0.008 h 0.093 l 0.094,0.004 0.192,0.004 h 0.187 l 0.191,0.004 h 0.188 l 0.094,0.003 h 0.285 l 0.191,0.004 h 0.379 l 0.094,0.004 h 2.023 l 0.086,-0.004 h 0.535 l 0.176,-0.004 h 0.36 l 0.086,-0.003 h 0.269 l 0.356,-0.004 0.089,-0.004 h 0.086 l 0.18,-0.004 0.355,-0.004 h 0.09 l 0.09,-0.004 h 0.18 l 0.355,-0.008 h 0.09 l 0.09,-0.004 0.176,-0.004 0.359,-0.007 0.715,-0.016 h 0.086 l 0.09,-0.004 0.176,-0.004 0.347,-0.008 0.703,-0.015 1.407,-0.039 0.086,-0.004 0.089,-0.004 0.176,-0.004 0.352,-0.012 0.703,-0.019 1.41,-0.047 0.094,-0.004 0.097,-0.004 0.192,-0.008 0.383,-0.012 0.765,-0.027 1.535,-0.058 3.075,-0.122 5.757,-0.242 6.274,-0.265 6.18,-0.25 5.785,-0.219 6.289,-0.215 5.887,-0.176 6.386,-0.168 6.285,-0.144 5.875,-0.114 6.371,-0.105 5.961,-0.082 h 0.09 l 0.09,-0.004 h 0.184 l 0.367,-0.004 0.73,-0.012 1.461,-0.015 2.922,-0.035 h 0.199 l 0.2,-0.004 0.394,-0.004 2.379,-0.024 3.176,-0.027 0.09,-0.004 h 0.281 l 0.367,-0.004 0.742,-0.008 1.481,-0.011 2.965,-0.02 0.101,-0.004 h 0.301 l 0.398,-0.004 0.805,-0.004 1.606,-0.011 3.214,-0.02 h 0.196 l 0.199,-0.004 h 0.394 l 0.79,-0.004 1.578,-0.011 3.156,-0.012 0.09,-0.004 h 0.644 l 0.739,-0.004 1.468,-0.008 h 0.371 l 0.368,-0.004 h 0.734 l 1.473,-0.007 h 0.8 l 0.797,-0.004 1.598,-0.008 h 0.797 l 0.801,-0.004 1.597,-0.004 h 0.371 l 0.375,-0.004 h 0.743 l 1.492,-0.004 h 0.746 l 0.746,-0.004 1.492,-0.004 h 0.731 L 214,54.52 h 1.828 l 0.363,-0.004 h 0.735 l 1.461,-0.004 h 1.586 l 1.586,-0.004 h 1.589 l 1.586,-0.004 h 1.481 l 1.48,-0.004 h 3.766 l 0.801,-0.004 h 9.691 l 0.371,-0.004 h 9.024 l 0.797,0.004 h 10.753 l 1.614,0.004 h 6.394 l 3.164,0.004 5.91,0.004 6.407,0.004 5.98,0.004 5.863,0.004 6.364,0.007 5.933,0.004 h 3.317 l 0.101,0.004 h 3.211" />
        <path
           inkscape:connector-curvature="0"
           id="path4607"
           style="fill:none;stroke:#0000ff;stroke-width:1.60000002;stroke-linecap:square;stroke-linejoin:miter;stroke-miterlimit:3.25;stroke-dasharray:none;stroke-opacity:1"
           d="m 37.082,333.73 0.023,-0.187 0.028,-0.215 0.066,-0.515 0.199,-1.575 0.071,-0.558 0.082,-0.649 0.203,-1.64 0.641,-5.438 0.23,-2.051 0.266,-2.453 0.308,-2.941 0.352,-3.539 0.402,-4.266 0.453,-5.148 0.508,-6.215 0.551,-7.481 0.582,-8.953 0.59,-10.601 0.558,-12.344 0.481,-14.043 0.351,-15.484 L 44.203,211 44.18,194.285 43.957,178.02 43.57,162.848 l -0.504,-13.653 -0.57,-11.925 -0.59,-10.196 -0.578,-8.582 -0.539,-7.16 -0.496,-5.941 -0.441,-4.922 -0.391,-4.078 -0.34,-3.387 -0.555,-5.164 -0.718,-6.192 -0.121,-1 -0.106,-0.851 -0.168,-1.356 -0.223,-1.753 -0.207,-1.633 -0.015,-0.125 -0.016,-0.114 -0.023,-0.191 -0.035,-0.293 -0.043,-0.391 -0.055,-0.511 -0.09,-0.805 -0.144,-1.156 -0.09,-0.684 -0.047,-0.359 -0.02,-0.149 -0.007,-0.062 -0.004,-0.024 V 70.184 H 36.43 V 70.18" />
        <path
           inkscape:connector-curvature="0"
           id="path4609"
           style="fill:#000000;fill-opacity:1;fill-rule:evenodd;stroke:none"
           d="m 64.051,205 c 0,0.809 -0.321,1.586 -0.895,2.156 -0.57,0.574 -1.347,0.895 -2.156,0.895 -0.809,0 -1.586,-0.321 -2.156,-0.895 -0.574,-0.57 -0.895,-1.347 -0.895,-2.156 0,-0.809 0.321,-1.586 0.895,-2.156 0.57,-0.574 1.347,-0.895 2.156,-0.895 0.809,0 1.586,0.321 2.156,0.895 0.574,0.57 0.895,1.347 0.895,2.156 z" />
        <path
           inkscape:connector-curvature="0"
           id="path4611"
           style="fill:#000000;fill-opacity:1;fill-rule:evenodd;stroke:none"
           d="m 264.051,205 c 0,0.809 -0.321,1.586 -0.895,2.156 -0.57,0.574 -1.347,0.895 -2.156,0.895 -0.809,0 -1.586,-0.321 -2.156,-0.895 -0.574,-0.57 -0.895,-1.347 -0.895,-2.156 0,-0.809 0.321,-1.586 0.895,-2.156 0.57,-0.574 1.347,-0.895 2.156,-0.895 0.809,0 1.586,0.321 2.156,0.895 0.574,0.57 0.895,1.347 0.895,2.156 z" />
        <text
           id="text4615"
           style="font-variant:normal;font-size:16px;font-family:CairoFont-0;-inkscape-font-specification:CairoFont-0-0;writing-mode:lr-tb;fill:#000000;fill-opacity:1;fill-rule:nonzero;stroke:none"
           transform="matrix(1,0,0,-1,55.487158,180.32842)">
          <tspan
             id="tspan4613"
             y="0"
             x="0">r</tspan>
        </text>
        <text
           id="text4619"
           style="font-variant:normal;font-size:11.359375px;font-family:CairoFont-0;-inkscape-font-specification:CairoFont-0-0;writing-mode:lr-tb;fill:#000000;fill-opacity:1;fill-rule:nonzero;stroke:none"
           transform="matrix(1,0,0,-1,60.815283,177.82842)">
          <tspan
             id="tspan4617"
             y="0"
             x="0">s</tspan>
        </text>
        <text
           id="text4623"
           style="font-variant:normal;font-size:16px;font-family:CairoFont-0;-inkscape-font-specification:CairoFont-0-0;writing-mode:lr-tb;fill:#000000;fill-opacity:1;fill-rule:nonzero;stroke:none"
           transform="matrix(1,0,0,-1,258.0421,180.32842)">
          <tspan
             id="tspan4621"
             y="0"
             x="0">r</tspan>
        </text>
        <text
           id="text4627"
           style="font-variant:normal;font-size:11.359375px;font-family:CairoFont-0;-inkscape-font-specification:CairoFont-0-0;writing-mode:lr-tb;fill:#000000;fill-opacity:1;fill-rule:nonzero;stroke:none"
           transform="matrix(1,0,0,-1,263.37023,177.82842)">
          <tspan
             id="tspan4625"
             y="0"
             x="0">c</tspan>
        </text>
        <path
           inkscape:connector-curvature="0"
           id="path4629"
           style="fill:#ff0000;fill-opacity:1;fill-rule:evenodd;stroke:none"
           d="m 204,233 c 0,0.266 -0.105,0.52 -0.293,0.707 -0.187,0.188 -0.441,0.293 -0.707,0.293 -0.266,0 -0.52,-0.105 -0.707,-0.293 C 202.105,233.52 202,233.266 202,233 c 0,-0.266 0.105,-0.52 0.293,-0.707 0.187,-0.188 0.441,-0.293 0.707,-0.293 0.266,0 0.52,0.105 0.707,0.293 0.188,0.187 0.293,0.441 0.293,0.707 z" />
        <path
           inkscape:connector-curvature="0"
           id="path4631"
           style="fill:#ff0000;fill-opacity:1;fill-rule:nonzero;stroke:#ff0000;stroke-width:0.03;stroke-linecap:square;stroke-linejoin:miter;stroke-miterlimit:3.25;stroke-dasharray:none;stroke-opacity:1"
           d="m 201.676,236.57 0.199,-0.406 0.434,-0.973 0.23,-0.586 0.203,-0.589 0.137,-0.551 0.047,-0.465 -0.047,-0.418 -0.137,-0.543 -0.203,-0.609 -0.23,-0.621 -0.434,-1.067 -0.199,-0.453 13.558,3.711 z" />
        <path
           inkscape:connector-curvature="0"
           id="path4633"
           style="fill:#ff0000;fill-opacity:1;fill-rule:evenodd;stroke:none"
           d="m 216,176 c 0,0.266 -0.105,0.52 -0.293,0.707 -0.187,0.188 -0.441,0.293 -0.707,0.293 -0.266,0 -0.52,-0.105 -0.707,-0.293 C 214.105,176.52 214,176.266 214,176 c 0,-0.266 0.105,-0.52 0.293,-0.707 0.187,-0.188 0.441,-0.293 0.707,-0.293 0.266,0 0.52,0.105 0.707,0.293 0.188,0.187 0.293,0.441 0.293,0.707 z" />
        <path
           inkscape:connector-curvature="0"
           id="path4635"
           style="fill:#ff0000;fill-opacity:1;fill-rule:nonzero;stroke:#ff0000;stroke-width:0.03;stroke-linecap:square;stroke-linejoin:miter;stroke-miterlimit:3.25;stroke-dasharray:none;stroke-opacity:1"
           d="m 216.59,172.695 -0.199,0.403 -0.434,0.976 -0.23,0.586 -0.204,0.59 -0.136,0.547 -0.047,0.465 0.047,0.418 0.136,0.543 0.204,0.609 0.23,0.625 0.434,1.063 0.199,0.453 -13.559,-3.711 z" />
        <path
           inkscape:connector-curvature="0"
           id="path4637"
           style="fill:#ff0000;fill-opacity:1;fill-rule:evenodd;stroke:none"
           d="m 204,264 c 0,0.266 -0.105,0.52 -0.293,0.707 -0.187,0.188 -0.441,0.293 -0.707,0.293 -0.266,0 -0.52,-0.105 -0.707,-0.293 C 202.105,264.52 202,264.266 202,264 c 0,-0.266 0.105,-0.52 0.293,-0.707 0.187,-0.188 0.441,-0.293 0.707,-0.293 0.266,0 0.52,0.105 0.707,0.293 0.188,0.187 0.293,0.441 0.293,0.707 z" />
        <path
           inkscape:connector-curvature="0"
           id="path4639"
           style="fill:#ff0000;fill-opacity:1;fill-rule:nonzero;stroke:#ff0000;stroke-width:0.03;stroke-linecap:square;stroke-linejoin:miter;stroke-miterlimit:3.25;stroke-dasharray:none;stroke-opacity:1"
           d="m 201.676,267.684 0.199,-0.407 0.434,-0.972 0.23,-0.586 0.203,-0.59 0.137,-0.551 0.047,-0.461 -0.047,-0.418 -0.137,-0.543 -0.203,-0.609 -0.23,-0.625 -0.434,-1.063 -0.199,-0.453 13.558,3.711 z" />
        <path
           inkscape:connector-curvature="0"
           id="path4641"
           style="fill:#ff0000;fill-opacity:1;fill-rule:evenodd;stroke:none"
           d="m 204,245 c 0,0.266 -0.105,0.52 -0.293,0.707 -0.187,0.188 -0.441,0.293 -0.707,0.293 -0.266,0 -0.52,-0.105 -0.707,-0.293 C 202.105,245.52 202,245.266 202,245 c 0,-0.266 0.105,-0.52 0.293,-0.707 0.187,-0.188 0.441,-0.293 0.707,-0.293 0.266,0 0.52,0.105 0.707,0.293 0.188,0.187 0.293,0.441 0.293,0.707 z" />
        <path
           inkscape:connector-curvature="0"
           id="path4643"
           style="fill:#ff0000;fill-opacity:1;fill-rule:nonzero;stroke:#ff0000;stroke-width:0.03;stroke-linecap:square;stroke-linejoin:miter;stroke-miterlimit:3.25;stroke-dasharray:none;stroke-opacity:1"
           d="m 201.676,248.465 0.199,-0.402 0.434,-0.977 0.23,-0.586 0.203,-0.59 0.137,-0.547 0.047,-0.465 -0.047,-0.418 -0.137,-0.542 -0.203,-0.61 -0.23,-0.625 -0.434,-1.062 -0.199,-0.453 13.558,3.71 z" />
        <path
           inkscape:connector-curvature="0"
           id="path4645"
           style="fill:#ff0000;fill-opacity:1;fill-rule:evenodd;stroke:none"
           d="m 216,164 c 0,0.266 -0.105,0.52 -0.293,0.707 -0.187,0.188 -0.441,0.293 -0.707,0.293 -0.266,0 -0.52,-0.105 -0.707,-0.293 C 214.105,164.52 214,164.266 214,164 c 0,-0.266 0.105,-0.52 0.293,-0.707 0.187,-0.188 0.441,-0.293 0.707,-0.293 0.266,0 0.52,0.105 0.707,0.293 0.188,0.187 0.293,0.441 0.293,0.707 z" />
        <path
           inkscape:connector-curvature="0"
           id="path4647"
           style="fill:#ff0000;fill-opacity:1;fill-rule:nonzero;stroke:#ff0000;stroke-width:0.03;stroke-linecap:square;stroke-linejoin:miter;stroke-miterlimit:3.25;stroke-dasharray:none;stroke-opacity:1"
           d="m 216.59,160.797 -0.199,0.406 -0.434,0.973 -0.23,0.586 -0.204,0.59 -0.136,0.55 -0.047,0.461 0.047,0.422 0.136,0.539 0.204,0.614 0.23,0.621 0.434,1.062 0.199,0.453 -13.559,-3.711 z" />
        <path
           inkscape:connector-curvature="0"
           id="path4649"
           style="fill:none;stroke:#ff0000;stroke-width:1;stroke-linecap:butt;stroke-linejoin:miter;stroke-miterlimit:3.25;stroke-dasharray:none;stroke-opacity:1"
           d="m 81.012,222.934 1.648,0.992" />
        <path
           inkscape:connector-curvature="0"
           id="path4651"
           style="fill:#ff0000;fill-opacity:1;fill-rule:nonzero;stroke:#ff0000;stroke-width:0.03;stroke-linecap:square;stroke-linejoin:miter;stroke-miterlimit:3.25;stroke-dasharray:none;stroke-opacity:1"
           d="m 79.75,226.34 0.379,-0.246 0.875,-0.61 0.5,-0.382 0.476,-0.407 0.399,-0.398 0.281,-0.371 0.176,-0.387 0.16,-0.535 0.141,-0.625 0.121,-0.652 0.176,-1.137 0.062,-0.492 9.715,10.16 z" />
        <path
           inkscape:connector-curvature="0"
           id="path4653"
           style="fill:#ff0000;fill-opacity:1;fill-rule:evenodd;stroke:none"
           d="m 70,195 c 0,0.266 -0.105,0.52 -0.293,0.707 C 69.52,195.895 69.266,196 69,196 68.734,196 68.48,195.895 68.293,195.707 68.105,195.52 68,195.266 68,195 c 0,-0.266 0.105,-0.52 0.293,-0.707 C 68.48,194.105 68.734,194 69,194 c 0.266,0 0.52,0.105 0.707,0.293 C 69.895,194.48 70,194.734 70,195 Z" />
        <path
           inkscape:connector-curvature="0"
           id="path4655"
           style="fill:#ff0000;fill-opacity:1;fill-rule:nonzero;stroke:#ff0000;stroke-width:0.03;stroke-linecap:square;stroke-linejoin:miter;stroke-miterlimit:3.25;stroke-dasharray:none;stroke-opacity:1"
           d="m 67.172,191.816 0.191,0.407 0.489,0.949 0.312,0.547 0.336,0.523 0.344,0.453 0.332,0.328 0.355,0.223 0.512,0.231 0.602,0.226 0.628,0.207 1.102,0.324 0.48,0.129 -11.367,8.27 z" />
        <path
           inkscape:connector-curvature="0"
           id="path4657"
           style="fill:#ff0000;fill-opacity:1;fill-rule:evenodd;stroke:none"
           d="m 216,55 c 0,0.266 -0.105,0.52 -0.293,0.707 C 215.52,55.895 215.266,56 215,56 214.734,56 214.48,55.895 214.293,55.707 214.105,55.52 214,55.266 214,55 c 0,-0.266 0.105,-0.52 0.293,-0.707 C 214.48,54.105 214.734,54 215,54 c 0.266,0 0.52,0.105 0.707,0.293 C 215.895,54.48 216,54.734 216,55 Z" />
        <path
           inkscape:connector-curvature="0"
           id="path4659"
           style="fill:#ff0000;fill-opacity:1;fill-rule:nonzero;stroke:#ff0000;stroke-width:0.03;stroke-linecap:square;stroke-linejoin:miter;stroke-miterlimit:3.25;stroke-dasharray:none;stroke-opacity:1"
           d="m 216.59,50.977 -0.199,0.406 -0.434,0.972 -0.23,0.586 -0.204,0.59 -0.136,0.551 -0.047,0.465 0.047,0.418 0.136,0.543 0.204,0.609 0.23,0.621 0.434,1.067 0.199,0.453 -13.559,-3.711 z" />
        <path
           inkscape:connector-curvature="0"
           id="path4661"
           style="fill:none;stroke:#0000ff;stroke-width:1;stroke-linecap:butt;stroke-linejoin:miter;stroke-miterlimit:3.25;stroke-dasharray:none;stroke-opacity:1"
           d="m 35.863,341.906 1.028,-6.164" />
        <path
           inkscape:connector-curvature="0"
           id="path4663"
           style="fill:#0000ff;fill-opacity:1;fill-rule:nonzero;stroke:#0000ff;stroke-width:0.03;stroke-linecap:square;stroke-linejoin:miter;stroke-miterlimit:3.25;stroke-dasharray:none;stroke-opacity:1"
           d="m 40.203,337.563 -0.367,-0.262 -0.887,-0.59 -0.543,-0.324 -0.547,-0.293 -0.519,-0.231 -0.449,-0.121 -0.422,-0.023 -0.559,0.047 -0.633,0.097 -0.652,0.125 -1.121,0.254 -0.481,0.125 5.891,-12.765 z" />
        <path
           inkscape:connector-curvature="0"
           id="path4665"
           style="fill:none;stroke:#0000ff;stroke-width:1;stroke-linecap:butt;stroke-linejoin:miter;stroke-miterlimit:3.25;stroke-dasharray:none;stroke-opacity:1"
           d="M 38.914,85.66 37.887,79.496" />
        <path
           inkscape:connector-curvature="0"
           id="path4667"
           style="fill:#0000ff;fill-opacity:1;fill-rule:nonzero;stroke:#0000ff;stroke-width:0.03;stroke-linecap:square;stroke-linejoin:miter;stroke-miterlimit:3.25;stroke-dasharray:none;stroke-opacity:1"
           d="m 41.609,80.145 -0.429,-0.129 -1.035,-0.27 -0.614,-0.133 -0.617,-0.097 -0.562,-0.047 -0.465,0.027 -0.407,0.117 -0.511,0.227 -0.571,0.297 -0.574,0.332 -0.98,0.601 -0.414,0.27 1.433,-13.981 z" />
        <path
           inkscape:connector-curvature="0"
           id="path4669"
           style="fill:#0000ff;fill-opacity:1;fill-rule:evenodd;stroke:none"
           d="m 58,212 c 0,0.266 -0.105,0.52 -0.293,0.707 C 57.52,212.895 57.266,213 57,213 56.734,213 56.48,212.895 56.293,212.707 56.105,212.52 56,212.266 56,212 c 0,-0.266 0.105,-0.52 0.293,-0.707 C 56.48,211.105 56.734,211 57,211 c 0.266,0 0.52,0.105 0.707,0.293 C 57.895,211.48 58,211.734 58,212 Z" />
        <path
           inkscape:connector-curvature="0"
           id="path4671"
           style="fill:#0000ff;fill-opacity:1;fill-rule:nonzero;stroke:#0000ff;stroke-width:0.03;stroke-linecap:square;stroke-linejoin:miter;stroke-miterlimit:3.25;stroke-dasharray:none;stroke-opacity:1"
           d="m 56.934,217.891 -0.227,-0.391 -0.566,-0.902 -0.36,-0.516 -0.383,-0.492 -0.378,-0.422 -0.36,-0.297 -0.375,-0.191 -0.527,-0.188 -0.621,-0.172 -0.645,-0.152 -1.125,-0.227 -0.488,-0.086 10.609,-9.222 z" />
        <path
           inkscape:connector-curvature="0"
           id="path4673"
           style="fill:none;stroke:#0000ff;stroke-width:1;stroke-linecap:butt;stroke-linejoin:miter;stroke-miterlimit:3.25;stroke-dasharray:none;stroke-opacity:1"
           d="m 54.164,195.48 -2.75,-6.878" />
        <path
           inkscape:connector-curvature="0"
           id="path4675"
           style="fill:#0000ff;fill-opacity:1;fill-rule:nonzero;stroke:#0000ff;stroke-width:0.03;stroke-linecap:square;stroke-linejoin:miter;stroke-miterlimit:3.25;stroke-dasharray:none;stroke-opacity:1"
           d="m 55.191,188.441 -0.449,-0.035 -1.066,-0.043 -0.629,0.004 -0.621,0.031 -0.563,0.079 -0.449,0.125 -0.371,0.203 -0.453,0.328 -0.492,0.414 -0.493,0.445 -0.824,0.797 -0.347,0.356 -1.59,-13.969 z" />
        <path
           inkscape:connector-curvature="0"
           id="path4677"
           style="fill:#0000ff;fill-opacity:1;fill-rule:evenodd;stroke:none"
           d="m 45,218 c 0,0.266 -0.105,0.52 -0.293,0.707 C 44.52,218.895 44.266,219 44,219 43.734,219 43.48,218.895 43.293,218.707 43.105,218.52 43,218.266 43,218 c 0,-0.266 0.105,-0.52 0.293,-0.707 C 43.48,217.105 43.734,217 44,217 c 0.266,0 0.52,0.105 0.707,0.293 C 44.895,217.48 45,217.734 45,218 Z" />
        <path
           inkscape:connector-curvature="0"
           id="path4679"
           style="fill:#0000ff;fill-opacity:1;fill-rule:nonzero;stroke:#0000ff;stroke-width:0.03;stroke-linecap:square;stroke-linejoin:miter;stroke-miterlimit:3.25;stroke-dasharray:none;stroke-opacity:1"
           d="m 47.609,222.855 -0.398,-0.21 -0.965,-0.461 -0.578,-0.246 -0.586,-0.215 -0.543,-0.153 -0.465,-0.062 -0.418,0.039 -0.547,0.125 -0.613,0.183 -0.629,0.215 -1.074,0.407 -0.461,0.183 4.07,-13.453 z" />
        <path
           inkscape:connector-curvature="0"
           id="path4681"
           style="fill:#0000ff;fill-opacity:1;fill-rule:evenodd;stroke:none"
           d="m 241,207 c 0,0.266 -0.105,0.52 -0.293,0.707 -0.187,0.188 -0.441,0.293 -0.707,0.293 -0.266,0 -0.52,-0.105 -0.707,-0.293 C 239.105,207.52 239,207.266 239,207 c 0,-0.266 0.105,-0.52 0.293,-0.707 0.187,-0.188 0.441,-0.293 0.707,-0.293 0.266,0 0.52,0.105 0.707,0.293 0.188,0.187 0.293,0.441 0.293,0.707 z" />
        <path
           inkscape:connector-curvature="0"
           id="path4683"
           style="fill:#0000ff;fill-opacity:1;fill-rule:nonzero;stroke:#0000ff;stroke-width:0.03;stroke-linecap:square;stroke-linejoin:miter;stroke-miterlimit:3.25;stroke-dasharray:none;stroke-opacity:1"
           d="m 238.281,210.945 0.199,-0.406 0.434,-0.973 0.234,-0.586 0.2,-0.589 0.136,-0.551 0.051,-0.461 -0.051,-0.422 -0.136,-0.543 -0.2,-0.609 -0.234,-0.621 -0.434,-1.067 -0.199,-0.449 13.559,3.711 z" />
        <path
           inkscape:connector-curvature="0"
           id="path4685"
           style="fill:none;stroke:#000000;stroke-width:1;stroke-linecap:butt;stroke-linejoin:miter;stroke-miterlimit:3.25;stroke-dasharray:none;stroke-opacity:1"
           d="m 81.012,204.633 v 3.988" />
        <text
           id="text4689"
           style="font-variant:normal;font-weight:normal;font-size:14px;font-family:Arial;-inkscape-font-specification:ArialMT;writing-mode:lr-tb;fill:#000000;fill-opacity:1;fill-rule:nonzero;stroke:none"
           transform="matrix(1,0,0,-1,77.010526,188.63158)">
          <tspan
             id="tspan4687"
             y="0"
             x="0">5</tspan>
        </text>
        <path
           inkscape:connector-curvature="0"
           id="path4691"
           style="fill:none;stroke:#000000;stroke-width:1;stroke-linecap:butt;stroke-linejoin:miter;stroke-miterlimit:3.25;stroke-dasharray:none;stroke-opacity:1"
           d="m 142.02,204.633 v 3.988" />
        <text
           id="text4695"
           style="font-variant:normal;font-weight:normal;font-size:14px;font-family:Arial;-inkscape-font-specification:ArialMT;writing-mode:lr-tb;fill:#000000;fill-opacity:1;fill-rule:nonzero;stroke:none"
           transform="matrix(1,0,0,-1,134.02105,188.63158)">
          <tspan
             id="tspan4693"
             sodipodi:role="line"
             y="0"
             x="0 7.7839999">10</tspan>
        </text>
        <path
           inkscape:connector-curvature="0"
           id="path4697"
           style="fill:none;stroke:#000000;stroke-width:1;stroke-linecap:butt;stroke-linejoin:miter;stroke-miterlimit:3.25;stroke-dasharray:none;stroke-opacity:1"
           d="m 203.031,204.633 v 3.988" />
        <text
           id="text4701"
           style="font-variant:normal;font-weight:normal;font-size:14px;font-family:Arial;-inkscape-font-specification:ArialMT;writing-mode:lr-tb;fill:#000000;fill-opacity:1;fill-rule:nonzero;stroke:none"
           transform="matrix(1,0,0,-1,195.03158,188.63158)">
          <tspan
             id="tspan4699"
             sodipodi:role="line"
             y="0"
             x="0 7.7839999">15</tspan>
        </text>
        <path
           inkscape:connector-curvature="0"
           id="path4703"
           style="fill:none;stroke:#000000;stroke-width:1;stroke-linecap:butt;stroke-linejoin:miter;stroke-miterlimit:3.25;stroke-dasharray:none;stroke-opacity:1"
           d="m 325.051,204.633 v 3.988" />
        <text
           id="text4707"
           style="font-variant:normal;font-weight:normal;font-size:14px;font-family:Arial;-inkscape-font-specification:ArialMT;writing-mode:lr-tb;fill:#000000;fill-opacity:1;fill-rule:nonzero;stroke:none"
           transform="matrix(1,0,0,-1,317.05263,188.63158)">
          <tspan
             id="tspan4705"
             sodipodi:role="line"
             y="0"
             x="0 7.7839999">25</tspan>
        </text>
        <path
           inkscape:connector-curvature="0"
           id="path4709"
           style="fill:none;stroke:#000000;stroke-width:1;stroke-linecap:butt;stroke-linejoin:miter;stroke-miterlimit:3.25;stroke-dasharray:none;stroke-opacity:1"
           d="M 3.051,204.633 H 342" />
        <text
           id="text4713"
           style="font-variant:normal;font-weight:normal;font-size:14px;font-family:Arial;-inkscape-font-specification:ArialMT;writing-mode:lr-tb;fill:#000000;fill-opacity:1;fill-rule:nonzero;stroke:none"
           transform="matrix(1,0,0,-1,350,199.63158)">
          <tspan
             id="tspan4711"
             y="0"
             x="0">X</tspan>
        </text>
        <path
           inkscape:connector-curvature="0"
           id="path4715"
           style="fill:none;stroke:#000000;stroke-width:1;stroke-linecap:butt;stroke-linejoin:miter;stroke-miterlimit:3.25;stroke-dasharray:none;stroke-opacity:1"
           d="m 20,21.602 h 3.988" />
        <text
           id="text4719"
           style="font-variant:normal;font-weight:normal;font-size:14px;font-family:MathematicaSans;-inkscape-font-specification:MathematicaSans;writing-mode:lr-tb;fill:#000000;fill-opacity:1;fill-rule:nonzero;stroke:none"
           transform="matrix(1,0,0,-1,0,16.6)">
          <tspan
             id="tspan4717"
             y="0"
             x="0">-</tspan>
        </text>
        <text
           id="text4723"
           style="font-variant:normal;font-weight:normal;font-size:14px;font-family:Arial;-inkscape-font-specification:ArialMT;writing-mode:lr-tb;fill:#000000;fill-opacity:1;fill-rule:nonzero;stroke:none"
           transform="matrix(1,0,0,-1,8.988,16.6)">
          <tspan
             id="tspan4721"
             y="0"
             x="0">2</tspan>
        </text>
        <path
           inkscape:connector-curvature="0"
           id="path4725"
           style="fill:none;stroke:#000000;stroke-width:1;stroke-linecap:butt;stroke-linejoin:miter;stroke-miterlimit:3.25;stroke-dasharray:none;stroke-opacity:1"
           d="m 20,21.602 h 3.988" />
        <text
           id="text4729"
           style="font-variant:normal;font-weight:normal;font-size:14px;font-family:MathematicaSans;-inkscape-font-specification:MathematicaSans;writing-mode:lr-tb;fill:#000000;fill-opacity:1;fill-rule:nonzero;stroke:none"
           transform="matrix(1,0,0,-1,0,16.6)">
          <tspan
             id="tspan4727"
             y="0"
             x="0">-</tspan>
        </text>
        <text
           id="text4733"
           style="font-variant:normal;font-weight:normal;font-size:14px;font-family:Arial;-inkscape-font-specification:ArialMT;writing-mode:lr-tb;fill:#000000;fill-opacity:1;fill-rule:nonzero;stroke:none"
           transform="matrix(1,0,0,-1,8.988,16.6)">
          <tspan
             id="tspan4731"
             y="0"
             x="0">2</tspan>
        </text>
        <path
           inkscape:connector-curvature="0"
           id="path4735"
           style="fill:none;stroke:#000000;stroke-width:1;stroke-linecap:butt;stroke-linejoin:miter;stroke-miterlimit:3.25;stroke-dasharray:none;stroke-opacity:1"
           d="m 20,204.633 h 3.988" />
        <path
           inkscape:connector-curvature="0"
           id="path4737"
           style="fill:none;stroke:#000000;stroke-width:1;stroke-linecap:butt;stroke-linejoin:miter;stroke-miterlimit:3.25;stroke-dasharray:none;stroke-opacity:1"
           d="m 20,296.148 h 3.988" />
        <text
           id="text4741"
           style="font-variant:normal;font-weight:normal;font-size:14px;font-family:Arial;-inkscape-font-specification:ArialMT;writing-mode:lr-tb;fill:#000000;fill-opacity:1;fill-rule:nonzero;stroke:none"
           transform="matrix(1,0,0,-1,9,291.14737)">
          <tspan
             id="tspan4739"
             y="0"
             x="0">1</tspan>
        </text>
        <path
           inkscape:connector-curvature="0"
           id="path4743"
           style="fill:none;stroke:#000000;stroke-width:1;stroke-linecap:butt;stroke-linejoin:miter;stroke-miterlimit:3.25;stroke-dasharray:none;stroke-opacity:1"
           d="m 20,387.664 h 3.988" />
        <text
           id="text4747"
           style="font-variant:normal;font-weight:normal;font-size:14px;font-family:Arial;-inkscape-font-specification:ArialMT;writing-mode:lr-tb;fill:#000000;fill-opacity:1;fill-rule:nonzero;stroke:none"
           transform="matrix(1,0,0,-1,9,382.66316)">
          <tspan
             id="tspan4745"
             y="0"
             x="0">2</tspan>
        </text>
        <path
           inkscape:connector-curvature="0"
           id="path4749"
           style="fill:none;stroke:#000000;stroke-width:1;stroke-linecap:butt;stroke-linejoin:miter;stroke-miterlimit:3.25;stroke-dasharray:none;stroke-opacity:1"
           d="M 20,1.262 V 408" />
        <text
           id="text4753"
           style="font-variant:normal;font-weight:normal;font-size:14px;font-family:Arial;-inkscape-font-specification:ArialMT;writing-mode:lr-tb;fill:#000000;fill-opacity:1;fill-rule:nonzero;stroke:none"
           transform="matrix(1,0,0,-1,15.5,417)">
          <tspan
             id="tspan4751"
             y="0"
             x="0">Z</tspan>
        </text>
      </g>
    </g>
    <g
       transform="matrix(0.45093265,0,0,-0.45093265,-123.92578,124.22679)"
       inkscape:label="Draw1"
       id="g4887">
      <g
         id="g4889">
        <path
           inkscape:connector-curvature="0"
           id="path4891"
           style="fill:none;stroke:#000000;stroke-width:1;stroke-linecap:square;stroke-linejoin:miter;stroke-miterlimit:3.25;stroke-dasharray:none;stroke-opacity:1"
           d="m 77.168,43 c 0,9.328 -3.707,18.273 -10.301,24.867 C 60.273,74.461 51.328,78.168 42,78.168 32.672,78.168 23.727,74.461 17.133,67.867 10.539,61.273 6.832,52.328 6.832,43 6.832,33.672 10.539,24.727 17.133,18.133 23.727,11.539 32.672,7.832 42,7.832 c 9.328,0 18.273,3.707 24.867,10.301 6.594,6.594 10.301,15.539 10.301,24.867 z" />
        <path
           inkscape:connector-curvature="0"
           id="path4893"
           style="fill:none;stroke:#000000;stroke-width:1;stroke-linecap:square;stroke-linejoin:miter;stroke-miterlimit:3.25;stroke-dasharray:none;stroke-opacity:1"
           d="m 324.168,43 c 0,9.328 -3.707,18.273 -10.301,24.867 -6.594,6.594 -15.539,10.301 -24.867,10.301 -9.328,0 -18.273,-3.707 -24.867,-10.301 C 257.539,61.273 253.832,52.328 253.832,43 c 0,-9.328 3.707,-18.273 10.301,-24.867 6.594,-6.594 15.539,-10.301 24.867,-10.301 9.328,0 18.273,3.707 24.867,10.301 6.594,6.594 10.301,15.539 10.301,24.867 z" />
        <path
           inkscape:connector-curvature="0"
           id="path4895"
           style="fill:none;stroke:#000000;stroke-width:1;stroke-linecap:square;stroke-linejoin:miter;stroke-miterlimit:3.25;stroke-dasharray:none;stroke-opacity:1"
           d="M 42.348,43.215 V 99.484" />
        <path
           inkscape:connector-curvature="0"
           id="path4897"
           style="fill:none;stroke:#000000;stroke-width:1;stroke-linecap:square;stroke-linejoin:miter;stroke-miterlimit:3.25;stroke-dasharray:none;stroke-opacity:1"
           d="M 288.52,43.215 V 99.484" />
        <path
           inkscape:connector-curvature="0"
           id="path4899"
           style="fill:none;stroke:#000000;stroke-width:1;stroke-linecap:butt;stroke-linejoin:miter;stroke-miterlimit:3.25;stroke-dasharray:none;stroke-opacity:1"
           d="m 183.016,88.934 h 92.468" />
        <path
           inkscape:connector-curvature="0"
           id="path4901"
           style="fill:#000000;fill-opacity:1;fill-rule:nonzero;stroke:#000000;stroke-width:0.03;stroke-linecap:square;stroke-linejoin:miter;stroke-miterlimit:3.25;stroke-dasharray:none;stroke-opacity:1"
           d="m 274.16,92.711 0.211,-0.43 0.457,-1.031 0.246,-0.617 0.211,-0.629 0.149,-0.582 0.05,-0.488 -0.05,-0.446 -0.149,-0.574 -0.211,-0.644 -0.246,-0.661 -0.457,-1.129 -0.211,-0.476 14.36,3.93 z" />
        <path
           inkscape:connector-curvature="0"
           id="path4903"
           style="fill:none;stroke:#000000;stroke-width:1;stroke-linecap:butt;stroke-linejoin:miter;stroke-miterlimit:3.25;stroke-dasharray:none;stroke-opacity:1"
           d="M 183.016,88.934 H 55.383" />
        <path
           inkscape:connector-curvature="0"
           id="path4905"
           style="fill:#000000;fill-opacity:1;fill-rule:nonzero;stroke:#000000;stroke-width:0.03;stroke-linecap:square;stroke-linejoin:miter;stroke-miterlimit:3.25;stroke-dasharray:none;stroke-opacity:1"
           d="m 56.707,85.152 -0.211,0.43 -0.461,1.031 -0.242,0.621 -0.215,0.625 -0.144,0.582 -0.051,0.493 0.051,0.445 0.144,0.574 0.215,0.645 0.242,0.66 0.461,1.125 0.211,0.48 -14.359,-3.929 z" />
        <path
           inkscape:connector-curvature="0"
           id="path4907"
           style="fill:#000000;fill-opacity:1;fill-rule:evenodd;stroke:none"
           d="m 43.5,43 c 0,0.398 -0.156,0.781 -0.437,1.063 C 42.781,44.344 42.398,44.5 42,44.5 41.602,44.5 41.219,44.344 40.938,44.063 40.656,43.781 40.5,43.398 40.5,43 c 0,-0.398 0.156,-0.781 0.438,-1.062 C 41.219,41.656 41.602,41.5 42,41.5 c 0.398,0 0.781,0.156 1.063,0.438 0.281,0.281 0.437,0.664 0.437,1.062 z" />
        <path
           inkscape:connector-curvature="0"
           id="path4909"
           style="fill:#000000;fill-opacity:1;fill-rule:evenodd;stroke:none"
           d="m 290.5,43 c 0,0.398 -0.156,0.781 -0.437,1.063 -0.282,0.281 -0.665,0.437 -1.063,0.437 -0.398,0 -0.781,-0.156 -1.062,-0.437 C 287.656,43.781 287.5,43.398 287.5,43 c 0,-0.398 0.156,-0.781 0.438,-1.062 0.281,-0.282 0.664,-0.438 1.062,-0.438 0.398,0 0.781,0.156 1.063,0.438 0.281,0.281 0.437,0.664 0.437,1.062 z" />
        <text
           id="text4913"
           style="font-variant:normal;font-size:16px;font-family:CairoFont-0;-inkscape-font-specification:CairoFont-0-0;writing-mode:lr-tb;fill:#000000;fill-opacity:1;fill-rule:nonzero;stroke:none"
           transform="matrix(1,0,0,-1,159.43306,97)">
          <tspan
             id="tspan4911"
             y="0"
             x="0">r</tspan>
        </text>
        <text
           id="text4917"
           style="font-variant:normal;font-size:11.359375px;font-family:CairoFont-0;-inkscape-font-specification:CairoFont-0-0;writing-mode:lr-tb;fill:#000000;fill-opacity:1;fill-rule:nonzero;stroke:none"
           transform="matrix(1,0,0,-1,164.76119,94.5)">
          <tspan
             id="tspan4915"
             y="0"
             x="0">c</tspan>
        </text>
        <path
           inkscape:connector-curvature="0"
           id="path4919"
           style="fill:none;stroke:#ff0000;stroke-width:1;stroke-linecap:butt;stroke-linejoin:miter;stroke-miterlimit:3.25;stroke-dasharray:none;stroke-opacity:1"
           d="M 81.031,43.215 H 92.613" />
        <path
           inkscape:connector-curvature="0"
           id="path4921"
           style="fill:#ff0000;fill-opacity:1;fill-rule:nonzero;stroke:#ff0000;stroke-width:0.03;stroke-linecap:square;stroke-linejoin:miter;stroke-miterlimit:3.25;stroke-dasharray:none;stroke-opacity:1"
           d="m 91.289,46.996 0.211,-0.43 0.461,-1.031 0.242,-0.621 0.215,-0.625 0.145,-0.582 0.05,-0.492 -0.05,-0.442 -0.145,-0.578 -0.215,-0.644 -0.242,-0.66 -0.461,-1.125 -0.211,-0.481 14.359,3.93 z" />
        <path
           inkscape:connector-curvature="0"
           id="path4923"
           style="fill:none;stroke:#ff0000;stroke-width:1;stroke-linecap:butt;stroke-linejoin:miter;stroke-miterlimit:3.25;stroke-dasharray:none;stroke-opacity:1"
           d="m 327.203,43.215 h 11.582" />
        <path
           inkscape:connector-curvature="0"
           id="path4925"
           style="fill:#ff0000;fill-opacity:1;fill-rule:nonzero;stroke:#ff0000;stroke-width:0.03;stroke-linecap:square;stroke-linejoin:miter;stroke-miterlimit:3.25;stroke-dasharray:none;stroke-opacity:1"
           d="m 337.461,46.996 0.211,-0.43 0.461,-1.031 0.242,-0.621 0.211,-0.625 0.148,-0.582 0.051,-0.492 -0.051,-0.442 -0.148,-0.578 -0.211,-0.644 -0.242,-0.66 -0.461,-1.125 -0.211,-0.481 14.359,3.93 z" />
      </g>
    </g>
    <g
       transform="matrix(0.43283824,0,0,-0.43283824,-120.91437,203.1364)"
       inkscape:label="Draw2"
       id="g4955">
      <g
         id="g4957">
        <path
           inkscape:connector-curvature="0"
           id="path4959"
           style="fill:none;stroke:#000000;stroke-width:1;stroke-linecap:square;stroke-linejoin:miter;stroke-miterlimit:3.25;stroke-dasharray:none;stroke-opacity:1"
           d="m 42.855,47 c 0,4.734 -1.878,9.277 -5.23,12.625 -3.348,3.352 -7.891,5.23 -12.625,5.23 -4.734,0 -9.277,-1.878 -12.625,-5.23 C 9.023,56.277 7.145,51.734 7.145,47 c 0,-4.734 1.878,-9.277 5.23,-12.625 3.348,-3.352 7.891,-5.23 12.625,-5.23 4.734,0 9.277,1.878 12.625,5.23 3.352,3.348 5.23,7.891 5.23,12.625 z" />
        <path
           inkscape:connector-curvature="0"
           id="path4961"
           style="fill:none;stroke:#000000;stroke-width:1;stroke-linecap:square;stroke-linejoin:miter;stroke-miterlimit:3.25;stroke-dasharray:none;stroke-opacity:1"
           d="m 256.855,89 c 0,4.734 -1.878,9.277 -5.23,12.625 -3.348,3.352 -7.891,5.23 -12.625,5.23 -4.734,0 -9.277,-1.878 -12.625,-5.23 -3.352,-3.348 -5.23,-7.891 -5.23,-12.625 0,-4.734 1.878,-9.277 5.23,-12.625 3.348,-3.352 7.891,-5.23 12.625,-5.23 4.734,0 9.277,1.878 12.625,5.23 3.352,3.348 5.23,7.891 5.23,12.625 z" />
        <path
           inkscape:connector-curvature="0"
           id="path4963"
           style="fill:none;stroke:#000000;stroke-width:1;stroke-linecap:square;stroke-linejoin:miter;stroke-miterlimit:3.25;stroke-dasharray:none;stroke-opacity:1"
           d="M 25.035,47.285 V 75.859" />
        <path
           inkscape:connector-curvature="0"
           id="path4965"
           style="fill:none;stroke:#000000;stroke-width:1;stroke-linecap:square;stroke-linejoin:miter;stroke-miterlimit:3.25;stroke-dasharray:none;stroke-opacity:1"
           d="M 150.035,47.285 V 75.859" />
        <path
           inkscape:connector-curvature="0"
           id="path4967"
           style="fill:none;stroke:#000000;stroke-width:1;stroke-linecap:butt;stroke-linejoin:miter;stroke-miterlimit:3.25;stroke-dasharray:none;stroke-opacity:1"
           d="M 114.32,70.5 H 137" />
        <path
           inkscape:connector-curvature="0"
           id="path4969"
           style="fill:#000000;fill-opacity:1;fill-rule:nonzero;stroke:#000000;stroke-width:0.03;stroke-linecap:square;stroke-linejoin:miter;stroke-miterlimit:3.25;stroke-dasharray:none;stroke-opacity:1"
           d="m 135.676,74.281 0.211,-0.433 0.461,-1.032 0.246,-0.617 0.211,-0.625 0.144,-0.582 0.051,-0.492 -0.051,-0.445 -0.144,-0.575 -0.211,-0.644 -0.246,-0.66 -0.461,-1.125 -0.211,-0.481 14.359,3.93 z" />
        <path
           inkscape:connector-curvature="0"
           id="path4971"
           style="fill:none;stroke:#000000;stroke-width:1;stroke-linecap:butt;stroke-linejoin:miter;stroke-miterlimit:3.25;stroke-dasharray:none;stroke-opacity:1"
           d="M 114.32,70.5 H 38.07" />
        <path
           inkscape:connector-curvature="0"
           id="path4973"
           style="fill:#000000;fill-opacity:1;fill-rule:nonzero;stroke:#000000;stroke-width:0.03;stroke-linecap:square;stroke-linejoin:miter;stroke-miterlimit:3.25;stroke-dasharray:none;stroke-opacity:1"
           d="m 39.398,66.723 -0.21,0.429 -0.461,1.032 -0.247,0.617 -0.21,0.629 -0.149,0.582 -0.051,0.488 0.051,0.445 0.149,0.575 0.21,0.644 0.247,0.66 0.461,1.129 0.21,0.477 -14.363,-3.93 z" />
        <text
           id="text4977"
           style="font-variant:normal;font-size:16px;font-family:CairoFont-0;-inkscape-font-specification:CairoFont-0-0;writing-mode:lr-tb;fill:#000000;fill-opacity:1;fill-rule:nonzero;stroke:none"
           transform="matrix(1,0,0,-1,90.464974,75.214558)">
          <tspan
             id="tspan4975"
             y="0"
             x="0">r</tspan>
        </text>
        <text
           id="text4981"
           style="font-variant:normal;font-size:11.359375px;font-family:CairoFont-0;-inkscape-font-specification:CairoFont-0-0;writing-mode:lr-tb;fill:#000000;fill-opacity:1;fill-rule:nonzero;stroke:none"
           transform="matrix(1,0,0,-1,95.793099,72.714558)">
          <tspan
             id="tspan4979"
             y="0"
             x="0">c</tspan>
        </text>
        <path
           inkscape:connector-curvature="0"
           id="path4983"
           style="fill:#000000;fill-opacity:1;fill-rule:evenodd;stroke:none"
           d="m 26.5,47 c 0,0.398 -0.156,0.781 -0.437,1.063 C 25.781,48.344 25.398,48.5 25,48.5 24.602,48.5 24.219,48.344 23.938,48.063 23.656,47.781 23.5,47.398 23.5,47 c 0,-0.398 0.156,-0.781 0.438,-1.062 C 24.219,45.656 24.602,45.5 25,45.5 c 0.398,0 0.781,0.156 1.063,0.438 0.281,0.281 0.437,0.664 0.437,1.062 z" />
        <path
           inkscape:connector-curvature="0"
           id="path4985"
           style="fill:#000000;fill-opacity:1;fill-rule:evenodd;stroke:none"
           d="m 151.5,47 c 0,0.398 -0.156,0.781 -0.437,1.063 -0.282,0.281 -0.665,0.437 -1.063,0.437 -0.398,0 -0.781,-0.156 -1.062,-0.437 C 148.656,47.781 148.5,47.398 148.5,47 c 0,-0.398 0.156,-0.781 0.438,-1.062 0.281,-0.282 0.664,-0.438 1.062,-0.438 0.398,0 0.781,0.156 1.063,0.438 0.281,0.281 0.437,0.664 0.437,1.062 z" />
        <path
           inkscape:connector-curvature="0"
           id="path4987"
           style="fill:none;stroke:#000000;stroke-width:1;stroke-linecap:square;stroke-linejoin:miter;stroke-miterlimit:3.25;stroke-dasharray:4, 4;stroke-dashoffset:0;stroke-opacity:1"
           d="m 352.141,49 c 0,10.895 -11.286,21.34 -31.379,29.043 C 300.668,85.742 273.414,90.07 245,90.07 216.586,90.07 189.332,85.742 169.238,78.043 149.145,70.34 137.859,59.895 137.859,49 c 0,-10.895 11.286,-21.34 31.379,-29.043 C 189.332,12.258 216.586,7.93 245,7.93 c 28.414,0 55.668,4.328 75.762,12.027 20.093,7.703 31.379,18.148 31.379,29.043 z" />
        <path
           inkscape:connector-curvature="0"
           id="path4989"
           style="fill:none;stroke:#ff0000;stroke-width:1;stroke-linecap:butt;stroke-linejoin:miter;stroke-miterlimit:3.25;stroke-dasharray:none;stroke-opacity:1"
           d="m 46.465,47.285 h 8.394" />
        <path
           inkscape:connector-curvature="0"
           id="path4991"
           style="fill:#ff0000;fill-opacity:1;fill-rule:nonzero;stroke:#ff0000;stroke-width:0.03;stroke-linecap:square;stroke-linejoin:miter;stroke-miterlimit:3.25;stroke-dasharray:none;stroke-opacity:1"
           d="m 53.535,51.066 0.211,-0.429 0.457,-1.032 0.246,-0.621 0.211,-0.625 0.149,-0.582 0.05,-0.492 -0.05,-0.441 -0.149,-0.574 -0.211,-0.649 -0.246,-0.66 -0.457,-1.125 -0.211,-0.481 14.36,3.93 z" />
        <path
           inkscape:connector-curvature="0"
           id="path4993"
           style="fill:none;stroke:#ff0000;stroke-width:1;stroke-linecap:butt;stroke-linejoin:miter;stroke-miterlimit:3.25;stroke-dasharray:none;stroke-opacity:1"
           d="m 258.965,93.715 h 17.32" />
        <path
           inkscape:connector-curvature="0"
           id="path4995"
           style="fill:#ff0000;fill-opacity:1;fill-rule:nonzero;stroke:#ff0000;stroke-width:0.03;stroke-linecap:square;stroke-linejoin:miter;stroke-miterlimit:3.25;stroke-dasharray:none;stroke-opacity:1"
           d="m 274.961,97.492 0.211,-0.429 0.461,-1.032 0.242,-0.617 0.215,-0.629 0.144,-0.582 0.051,-0.488 -0.051,-0.445 -0.144,-0.575 -0.215,-0.644 -0.242,-0.66 -0.461,-1.129 -0.211,-0.477 14.359,3.93 z" />
      </g>
    </g>
  </g>
</svg>
